<?xml version="1.0" encoding="UTF-8"?>
<svg width="90px" height="90px" viewBox="0 0 90 90" version="1.1" xmlns="http://www.w3.org/2000/svg" xmlns:xlink="http://www.w3.org/1999/xlink">
    <title>como-se-proteger</title>
    <defs>
        <polygon id="path-1" points="0.11494592 0.0693098228 55.3000595 0.0693098228 55.3000595 24.5297394 0.11494592 24.5297394"></polygon>
    </defs>
    <g id="Page-1" stroke="none" stroke-width="1" fill="none" fill-rule="evenodd" opacity="0.69">
        <g id="App-Início" transform="translate(-32.000000, -421.000000)">
            <g id="conteudo" transform="translate(18.000000, 136.000000)">
                <g id="prevenção" transform="translate(0.000000, 274.000000)">
                    <g id="Group-121">
                        <g id="como-se-proteger" transform="translate(14.000000, 16.000000)">
                            <path d="M57.2803031,38.4253605 L57.2875634,38.4326208 C57.7008812,41.1005175 57.7008812,43.3626158 57.4760716,45.2259169 C57.0772743,48.5752435 55.9970471,50.6628356 55.410001,51.5765947 C55.1779311,51.9388313 55.0257243,52.1200792 55.0257243,52.1200792 C50.4945266,55.7450374 44.8685811,56.0134087 44.8685811,56.0134087 C44.8685811,56.0134087 42.0992997,55.8827235 38.8803991,54.5489049 C38.8586182,54.5416446 38.851358,54.5343843 38.851358,54.5343843 C37.4957584,53.9688597 36.0602957,53.1930461 34.7189575,52.1200792 C34.7189575,52.1200792 34.5667507,51.9463508 34.3422004,51.5835957 C33.7546356,50.6703552 32.6601472,48.5677239 32.2686102,45.2041361 C32.0438006,43.340835 32.0367996,41.0862562 32.4498581,38.4326208 C32.4498581,38.4326208 34.624833,36.4391531 44.8685811,36.4391531 C54.7936544,36.4391531 57.1426169,38.3094552 57.2803031,38.4253605" id="Fill-1" fill="#D7D0E6"></path>
                            <path d="M26.3745786,89.5578072 L2.59296007e-05,89.5578072 C2.59296007e-05,85.4762287 1.08751338,80.5827945 4.755774,76.2328446 C7.8732899,72.5428032 22.1117522,67.0983649 26.3745786,65.5249567 L26.3745786,89.5578072 Z" id="Fill-3" fill="#D7D0E6"></path>
                            <path d="M27.5853354,65.0827015 C27.5853354,65.0827015 28.5351367,66.6198082 30.2604923,68.5554529 L30.2604923,89.0865107 L30.2604923,89.5579109 L26.3746823,89.5579109 L26.3746823,65.5250604 C27.1429764,65.2421685 27.5853354,65.0827015 27.5853354,65.0827015" id="Fill-5" fill="#D7D0E6"></path>
                            <path d="M34.3420967,72.3470347 L34.3420967,89.5578072 L30.2605182,89.5578072 L30.2605182,89.0866663 L30.2605182,68.5553492 C31.3407454,69.7590012 32.7108655,71.1146008 34.3420967,72.3470347" id="Fill-7" fill="#D7D0E6"></path>
                            <g id="Group-11" transform="translate(34.227073, 65.028068)">
                                <mask id="mask-2" fill="white">
                                    <use xlink:href="#path-1"></use>
                                </mask>
                                <g id="Clip-10"></g>
                                <path d="M55.3001373,24.5297394 L10.6415859,24.5297394 L10.4312969,24.5297394 L0.11494592,24.5297394 L0.11494592,7.31896689 C2.92078802,9.44311978 6.50218447,11.2047769 10.6415859,11.2047769 C20.827511,11.2047769 27.4973822,0.511409515 27.7654943,0.0693098228 C28.7731185,0.431546345 46.977254,6.97825194 50.5441299,11.2047769 C54.2126498,15.5547267 55.3001373,20.4481609 55.3001373,24.5297394" id="Fill-9" fill="#D7D0E6" mask="url(#mask-2)"></path>
                            </g>
                            <path d="M37.4232593,29.8635101 C38.2063332,29.8635101 38.8514617,30.5013783 38.8514617,31.2917125 C38.8514617,32.0820467 38.2063332,32.7199149 37.4232593,32.7199149 C36.632925,32.7199149 35.9950569,32.0820467 35.9950569,31.2917125 C35.9950569,30.5013783 36.632925,29.8635101 37.4232593,29.8635101" id="Fill-12" fill="#3F0030"></path>
                            <path d="M51.603769,29.8635101 C52.3938439,29.8635101 53.0319714,30.5013783 53.0319714,31.2917125 C53.0319714,32.0820467 52.3938439,32.7199149 51.603769,32.7199149 C50.820695,32.7199149 50.1828268,32.0820467 50.1828268,31.2917125 C50.1828268,30.5013783 50.820695,29.8635101 51.603769,29.8635101" id="Fill-14" fill="#3F0030"></path>
                            <path d="M55.9391204,51.3734363 C55.8592572,51.8157953 55.2068685,55.5491392 56.2798354,58.688436 C56.511646,59.3846458 56.8308394,60.0515551 57.2656788,60.6458615 C49.2982904,61.2476876 39.4603406,54.9333112 38.8802954,54.5487752 C42.099196,55.8828532 44.8687367,56.0135384 44.8687367,56.0135384 C44.8687367,56.0135384 50.4944229,55.7449077 55.0256206,52.1202088 C55.0256206,52.1202088 55.1778273,51.9389609 55.4098973,51.5764651 C55.5911452,51.5186421 55.7721338,51.4532995 55.9391204,51.3734363" id="Fill-16" fill="#3F0030"></path>
                            <path d="M30.4634173,5.74366586 L30.4561571,5.4029509 C31.1230664,2.56106666 33.7404003,0.28444772 36.6546281,0.0308562249 C38.0685692,-0.0995696668 39.4819918,0.212104134 40.8886726,0.436654476 C42.4981229,0.697765556 44.1726565,0.849972312 45.7388044,0.393092747 L45.7458054,0.414873612 C48.4282226,-0.310118025 51.3790112,0.00907536026 53.8366187,1.29933229 C56.3813498,2.63341025 58.3678165,4.98211348 59.2595354,7.70809241 L59.2667957,8.17949255 C62.3477509,8.09262839 65.3781433,10.0790951 66.5454939,12.9352406 C67.36461,14.9580088 67.3213076,17.3360125 68.5317014,19.1627528 C69.1843494,20.1488555 70.1486713,20.8811075 71.0546515,21.6421412 C71.9681513,22.4106946 72.8598703,23.2591112 73.294969,24.3608599 C73.7298084,25.4701282 73.5706007,26.88381 72.6280597,27.616062 L72.4540721,27.724707 C73.2804484,29.0515247 73.6066428,30.6900161 73.3530513,32.2341239 C73.0992005,33.8435742 72.2220021,35.3371192 70.9387462,36.3447435 C71.8159446,38.8168716 70.8951845,41.8254832 68.7710316,43.3695909 L68.7204689,43.4206722 C69.1553083,43.840991 69.1553083,44.573243 68.858155,45.1097264 C68.5607425,45.6389495 68.0390389,46.0014454 67.5098158,46.2913383 C66.9730731,46.5814905 66.4078078,46.8135605 65.9291473,47.1905768 C65.4652668,47.5528134 65.0882504,48.0529954 64.9868656,48.6330405 C64.8779613,49.2130857 65.0882504,49.8654745 65.5739118,50.1916688 C65.9727091,50.4600402 66.5454939,50.4452603 66.9225103,50.1701473 C66.1757378,51.5112262 64.5227258,52.3015604 63.0149195,51.9823671 L62.7029864,52.3303423 C63.2902919,53.599337 63.0584812,55.1722265 62.2608867,56.3177963 C61.4560319,57.4703671 60.1582554,58.2171396 58.7953956,58.5218124 C57.4325358,58.8262259 57.7079081,58.9856929 56.3450483,58.6667588 L56.2797057,58.6885397 C55.2067388,55.5492429 55.8593869,51.815899 55.9392501,51.37354 C59.3173584,49.8945156 60.3540239,45.1387675 60.3540239,45.1387675 C60.3540239,45.1387675 60.665957,39.7521523 60.8181637,36.4391272 C60.883247,35.0179258 60.9268088,33.9812603 60.8980269,33.9016565 L60.557312,31.2915829 L60.665957,31.0597722 C59.5276475,30.1027107 58.9766435,28.5949044 58.8026559,27.11588 C58.6286683,25.6368555 58.7736147,24.1435698 58.7736147,22.6500248 C58.7663544,19.5179884 58.0053207,16.2340044 55.8739075,13.9358639 C53.7497546,11.6302038 50.0234117,10.6516207 47.355515,12.2971131 L47.3770366,12.3842366 C45.1079372,12.8991985 42.7444541,12.4423189 40.4172725,12.3624557 C38.0250075,12.2901122 35.3498506,12.7757736 33.9216482,14.6896374 C32.9863675,15.9438522 32.7688181,17.5680824 32.3772812,19.0828897 C31.9860035,20.5982155 31.2610119,22.2006648 29.8182889,22.8167522 L29.7166448,22.838533 C30.1009215,25.6005541 29.6367817,28.4714795 28.404607,30.9799091 C28.2957027,31.2044594 28.1797974,31.4295283 28.0566318,31.6468184 C27.200955,33.1984457 26.149769,34.65543 25.6132855,36.3374832 C24.9969389,38.2586073 25.2725706,40.7016943 26.9618841,41.8037023 L27.1140908,42.0139914 C26.8314582,42.6230777 26.9764046,43.4058923 27.4475455,43.891813 C27.9259466,44.3702142 28.7017603,44.5151606 29.3181069,44.2397883 C29.3468887,44.7977933 29.3686696,45.1387675 29.3686696,45.1387675 C29.3686696,45.1387675 30.3835542,49.77135 33.6460165,51.3154577 L33.6387563,51.3299783 C33.6387563,51.3299783 34.2623631,54.4184531 33.6460165,57.4343249 C32.0438265,57.3399412 28.745322,55.9553005 27.5707111,54.8605527 C26.3963595,53.765805 25.4901199,52.4247261 24.598401,51.0909074 L24.6274421,50.9674825 C22.764141,50.5251235 21.0966084,49.3580322 20.052942,47.7631024 C18.9579349,46.0955698 18.5666572,43.9786772 18.9869761,42.0287712 L18.9869761,41.9852095 C18.3854093,41.9634286 17.9212695,41.2526983 17.9866121,40.6293507 C18.0662159,39.9406605 18.5593969,39.3823962 19.0450584,38.8894745 C19.5307198,38.4035538 20.0599429,37.8961115 20.2411909,37.2292021 C20.5746455,36.0040285 19.6468844,34.8441975 19.0232775,33.7421894 C17.4138272,30.9003052 17.7618024,27.0723182 19.8644338,24.5784092 L19.9222568,24.5421078 C19.3930336,23.67943 19.3712527,22.5486401 19.77005,21.6203604 C20.1978884,20.634517 21.0533059,19.8732239 22.0318891,19.4311242 C22.7568807,19.1121901 23.5399547,18.9452035 24.3302889,18.9599833 C23.5835164,18.3363765 23.1701985,17.3287522 23.2715833,16.3499097 C23.365967,15.3565467 23.9968342,14.4287856 24.8810336,13.9646458 L25.0695418,13.8560007 C24.3445502,12.4713601 23.65586,10.9562935 23.9820543,9.44096763 C24.2649463,8.10688967 25.3306529,7.03418209 26.5630868,6.46139721 C27.7664796,5.89587261 29.1293394,5.75066685 30.4634173,5.74366586" id="Fill-18" fill="#3F0030"></path>
                            <path d="M34.7190093,52.1201829 C36.0600883,53.1931498 37.495551,53.9689634 38.8514098,54.534488 C38.8514098,54.534488 38.8586701,54.5417483 38.880451,54.5487493 C39.4604961,54.9332853 49.298446,61.2476616 57.2658344,60.6458356 C57.4688631,60.9359878 57.7079341,61.2040999 57.9690451,61.4579507 C61.376454,64.7204131 62.0070619,65.0826496 62.0070619,65.0826496 C62.0070619,65.0826496 62.0070619,65.0901692 61.9925413,65.0974295 C61.7244292,65.5395292 55.054558,76.2328965 44.868633,76.2328965 C40.7292315,76.2328965 37.147835,74.4712394 34.341993,72.3470865 C32.7107618,71.1146526 31.3406417,69.7587938 30.2604145,68.555401 C28.5350589,66.6197563 27.5852576,65.0826496 27.5852576,65.0826496 C27.5852576,65.0826496 28.2088645,64.7204131 31.6162733,61.4579507 C32.7398029,60.3849838 33.341629,58.92048 33.6460425,57.4341953 C34.2623891,54.4183234 33.6387822,51.3298487 33.6387822,51.3298487 L33.6460425,51.3153281 C33.8708521,51.4169721 34.102922,51.5110966 34.341993,51.5836995 C34.5668026,51.9461953 34.7190093,52.1201829 34.7190093,52.1201829" id="Fill-20" fill="#F57788"></path>
                            <path d="M34.4798606,28.7323831 C37.6697201,28.7323831 41.5700507,28.3701466 43.1068981,30.088242 C43.1068981,30.088242 43.1359393,30.4362172 43.1068981,30.9581801 C43.0490751,32.183613 42.6647984,34.3292874 40.7509346,34.894812 C38.1118198,35.6924066 32.0437747,36.569605 31.2900012,30.9581801 C31.26096,30.7914527 31.2464394,30.6247254 31.2319189,30.4507378 C31.2319189,30.4507378 31.2900012,28.7323831 34.4798606,28.7323831 M38.851332,31.2916347 C38.851332,30.5013005 38.2062036,29.8634323 37.4233889,29.8634323 C36.6330547,29.8634323 35.9949272,30.5013005 35.9949272,31.2916347 C35.9949272,32.081969 36.6330547,32.7198371 37.4233889,32.7198371 C38.2062036,32.7198371 38.851332,32.081969 38.851332,31.2916347" id="Fill-22" fill="#F57788"></path>
                            <path d="M51.603769,29.8635101 C50.820695,29.8635101 50.1828268,30.5013783 50.1828268,31.2917125 C50.1828268,32.0820467 50.820695,32.7199149 51.603769,32.7199149 C52.3938439,32.7199149 53.0319714,32.0820467 53.0319714,31.2917125 C53.0319714,30.5013783 52.3938439,29.8635101 51.603769,29.8635101 M46.6377318,30.0880604 C48.1745793,28.3699651 52.0749098,28.7324609 55.2647693,28.7324609 C58.4476278,28.7324609 58.5127111,30.4508156 58.5127111,30.4508156 C58.4981905,30.6248032 58.4836699,30.7915305 58.4546288,30.9507383 C57.7081156,36.5694234 51.6400704,35.6922251 48.9939546,34.8946305 C47.0798315,34.3293652 46.6955548,32.1834315 46.6377318,30.9582578 C46.6086907,30.436295 46.6377318,30.0880604 46.6377318,30.0880604" id="Fill-24" fill="#F57788"></path>
                            <path d="M28.8177434,31.7702692 L28.8250037,33.9016824 C28.7959625,33.9812863 28.8395242,35.0179517 28.9046075,36.4391531 C29.0207722,38.9258018 29.2238009,42.5722816 29.3179254,44.2398142 C28.7018381,44.5151866 27.9260244,44.3702401 27.4476233,43.891839 C26.9762231,43.4059183 26.8312767,42.6228443 27.1141686,42.0140173 L26.9617026,41.8037282 C25.2726484,40.7017202 24.9970167,38.2586332 25.6133633,36.3375091 C26.1498468,34.6554559 27.2010328,33.1984716 28.0564503,31.6468443 L28.8177434,31.7702692 Z" id="Fill-26" fill="#F57788"></path>
                            <path d="M29.3179772,44.2397624 C29.2238528,42.5722297 29.020824,38.92575 28.9046594,36.4391013 L32.4500137,38.432569 C32.0366959,41.0862043 32.0439562,43.3407831 32.2685065,45.2040842 L32.1162997,45.2258651 L29.3687993,45.1387416 C29.3687993,45.1387416 29.3470184,44.7977674 29.3179772,44.2397624" id="Fill-28" fill="#F57788"></path>
                            <path d="M34.3420967,51.5836217 C34.1027665,51.5112781 33.8709558,51.4168943 33.6461462,51.3155096 C30.3836838,49.7714019 29.3687993,45.1388194 29.3687993,45.1388194 L32.116559,45.2256836 L32.2685065,45.2039027 C32.6600435,48.5677498 33.7547912,50.6703811 34.3420967,51.5836217" id="Fill-30" fill="#F57788"></path>
                            <path d="M55.4098973,51.576517 C55.9972027,50.6630171 57.0771706,48.5751657 57.4759679,45.2258391 L60.3541535,45.1387157 C60.3541535,45.1387157 59.3174881,49.894723 55.9391204,51.3734882 C55.7721338,51.4530921 55.5911452,51.5184346 55.4098973,51.576517" id="Fill-32" fill="#F57788"></path>
                            <path d="M57.2875115,38.4326986 L57.2802512,38.4254383 L60.8180859,36.4392309 C60.6658792,39.752256 60.3542054,45.138612 60.3542054,45.138612 L57.4760197,45.2257354 C57.7008293,43.3626936 57.7008293,41.1005952 57.2875115,38.4326986" id="Fill-34" fill="#F57788"></path>
                            <path d="M48.9938509,34.8947343 C51.6399667,35.6923288 57.7080118,36.5695272 58.4547843,30.950842 L58.5126074,30.9581023 L60.5571564,31.2915569 L60.8978713,33.9016305 C60.9269125,33.9814937 60.8833508,35.0181592 60.8182675,36.4391013 L57.2804327,38.4253087 C57.1424873,38.3094034 54.7935247,36.4391013 44.8687108,36.4391013 C34.6247034,36.4391013 32.4499878,38.4328283 32.4499878,38.4328283 L28.9046335,36.4391013 C28.8395502,35.0181592 28.7959884,33.9814937 28.8250296,33.9016305 L28.8177693,31.7702174 L31.2826372,30.9581023 L31.2898974,30.9581023 C32.0439302,36.5695272 38.1119754,35.6923288 40.7508309,34.8947343 C42.6646947,34.3292097 43.0489714,32.1835352 43.1070537,30.9581023 L43.114314,30.9581023 C43.114314,30.9581023 44.2381029,30.2188494 46.6303678,30.9581023 L46.6376281,30.9581023 C46.6957104,32.1835352 47.0799871,34.3292097 48.9938509,34.8947343" id="Fill-36" fill="#F57788"></path>
                            <path d="M34.4798606,28.7323831 C31.2900012,28.7323831 31.2319189,30.4507378 31.2319189,30.4507378 C31.2464394,30.6247254 31.26096,30.7914527 31.2900012,30.9581801 L31.2827409,30.9581801 L28.817873,31.7702952 L28.0565799,31.6468703 C28.1797456,31.4293209 28.2956509,31.2045113 28.4045552,30.9799609 C29.6369891,28.4715313 30.1008697,25.600606 29.716593,22.8385849 L29.818237,22.816804 C31.26096,22.2007167 31.9859516,20.5982674 32.3774886,19.0829415 C32.7687663,17.5678749 32.9863156,15.9439041 33.9215963,14.6896893 C35.3497987,12.7758254 38.0249557,12.290164 40.4172206,12.3625076 C42.7446616,12.4423708 45.1078854,12.8992503 47.377244,12.3842885 L47.3554632,12.297165 C50.0233598,10.6516725 53.7497027,11.6302557 55.8738556,13.9359158 C58.0052688,16.2340563 58.7665619,19.5180402 58.7735629,22.6500767 C58.7735629,24.1436217 58.6286164,25.6369074 58.802604,27.1159318 C58.9768509,28.5949562 59.5278549,30.1027625 60.6659051,31.0598241 L60.5572601,31.2916347 L58.5127111,30.9581801 L58.4546288,30.9509198 C58.4836699,30.7914527 58.4981905,30.6247254 58.5127111,30.4507378 C58.5127111,30.4507378 58.4476278,28.7323831 55.2647693,28.7323831 C52.0749098,28.7323831 48.1745793,28.3701466 46.6377318,30.088242 C46.6377318,30.088242 46.6086907,30.4362172 46.6377318,30.9581801 L46.6304715,30.9581801 C44.2379473,30.2186678 43.1141584,30.9581801 43.1141584,30.9581801 L43.1068981,30.9581801 C43.1359393,30.4362172 43.1068981,30.088242 43.1068981,30.088242 C41.5700507,28.3701466 37.6697201,28.7323831 34.4798606,28.7323831" id="Fill-38" fill="#F57788"></path>
                            <path d="M37.3927401,29.0636079 C36.9008556,29.0636079 36.407156,29.071646 35.9259026,29.0796842 C35.4353146,29.0874631 34.9496531,29.095242 34.4800681,29.095242 C31.7198621,29.095242 31.597993,30.412725 31.5935849,30.4689922 C31.6065497,30.5838603 31.6197738,30.7402158 31.6467406,30.8957934 C31.6482964,30.9004608 31.648815,30.9051281 31.648815,30.9100547 C31.8562518,32.4541624 32.5076034,33.5875453 33.5839411,34.2801249 C35.4565768,35.4858514 38.4597432,35.2089232 40.6458678,34.5477184 C42.3471089,34.0449434 42.691454,32.0724787 42.7451283,30.9411702 C42.7622418,30.6274221 42.7578338,30.3792758 42.7521293,30.2405524 C41.7292066,29.2199633 39.5726417,29.0636079 37.3927401,29.0636079 M36.95816,35.8439391 C35.6787935,35.8439391 34.3159337,35.6139436 33.1908483,34.8897298 C31.9298918,34.0783926 31.169636,32.774393 30.9318615,31.0135138 C30.9012646,30.8382297 30.8857068,30.6629456 30.870927,30.4798826 C30.8722234,30.3541241 30.9798313,28.3702503 34.4800681,28.3702503 C34.946023,28.3702503 35.4272764,28.3624714 35.9137157,28.3546926 C38.8831736,28.3075007 41.9550534,28.2574566 43.377292,29.8464225 C43.4296698,29.9050234 43.4615632,29.9794413 43.4680456,30.058008 C43.4693421,30.0733065 43.4991611,30.4370988 43.4688235,30.9785089 C43.4063331,32.2993627 42.983162,34.6135796 40.8533046,35.2421131 C40.207139,35.4376223 38.6565489,35.8439391 36.95816,35.8439391" id="Fill-40" fill="#3F0030"></path>
                            <path d="M46.9923969,30.2405524 C46.9866924,30.3790165 46.9822844,30.6263849 46.9993979,30.9377994 C47.0530722,32.0724787 47.3974173,34.0449434 49.096584,34.5469405 C50.1604755,34.8684676 53.8108447,35.7951915 56.1655118,34.2777913 C57.2402937,33.584693 57.8895709,32.4492358 58.0949334,30.9030537 C58.0964891,30.8973492 58.0970077,30.8916447 58.0977856,30.8854216 C58.1247524,30.7381415 58.1379765,30.5828232 58.1517192,30.4210224 C58.1465333,30.4140215 58.0192189,29.095242 55.265236,29.095242 C54.7951324,29.095242 54.3099895,29.0874631 53.8194015,29.0794249 C51.2090686,29.037419 48.246871,28.9889306 46.9923969,30.2405524 M52.7892184,35.8423834 C51.0900517,35.8423834 49.5381651,35.4376223 48.8888879,35.2415945 C46.7616235,34.6135796 46.3381931,32.2991034 46.275962,30.975138 C46.2453651,30.4370988 46.2751842,30.0730472 46.2764806,30.058008 C46.282963,29.9794413 46.3148564,29.9050234 46.3672342,29.8461632 C47.7902507,28.2566787 50.8613526,28.30776 53.8313291,28.3546926 C54.3177684,28.3624714 54.7992811,28.3702503 55.265236,28.3702503 C58.7561382,28.3702503 58.8715249,30.3525683 58.875155,30.4368395 C58.8588194,30.6626863 58.8424837,30.8390076 58.8126647,31.0070314 C58.576446,32.7692071 57.8180052,34.0747625 56.5586045,34.8876555 C55.4350749,35.6126471 54.0701407,35.8423834 52.7892184,35.8423834" id="Fill-42" fill="#3F0030"></path>
                            <path d="M46.6305493,31.3208055 C46.5950258,31.3208055 46.5589836,31.3153603 46.5237194,31.3044699 C44.354449,30.6341897 43.3201172,31.2570187 43.3094861,31.2632418 C43.1414623,31.3700718 42.9171712,31.319509 42.8111191,31.1527817 C42.703252,30.9855358 42.7486288,30.7643563 42.9150968,30.6551927 C42.9666967,30.6212249 44.2113176,29.83115 46.7373793,30.6121495 C46.9284804,30.6710097 47.0360883,30.8737792 46.9767095,31.0651397 C46.9284804,31.2207173 46.7856083,31.3208055 46.6305493,31.3208055" id="Fill-44" fill="#3F0030"></path>
                            <path d="M41.7950937,27.8554959 C41.7149712,27.8554959 41.635108,27.8290477 41.5679504,27.7753734 C40.4024148,26.8377591 39.094785,26.1293624 37.6808439,25.6698898 C37.0912048,25.4772329 36.3973287,25.3006523 35.7418284,25.4336712 C34.7951387,25.6265874 34.0864827,26.407587 33.3241524,27.3322366 C33.1965788,27.4865177 32.9678797,27.5075207 32.8135986,27.3812435 C32.6593174,27.2536699 32.6372773,27.0254894 32.7645916,26.8706897 C33.421907,26.0741323 34.3216641,24.9835333 35.5966226,24.7237187 C36.4201467,24.5551763 37.226298,24.7592423 37.9053943,24.9806811 C39.4028287,25.4671204 40.7882473,26.217523 42.022237,27.2106267 C42.1780739,27.336126 42.2029663,27.5640472 42.077467,27.7204027 C42.0059013,27.8090819 41.9006271,27.8554959 41.7950937,27.8554959" id="Fill-46" fill="#3F0030"></path>
                            <path d="M47.5948193,27.8554959 C47.4892858,27.8554959 47.3840117,27.8090819 47.312446,27.7204027 C47.1869467,27.5645658 47.2118391,27.336126 47.367676,27.2106267 C48.6001099,26.2180416 49.9857878,25.4673797 51.4845187,24.9804218 C52.1628371,24.7592423 52.9663954,24.5546577 53.7932904,24.7237187 C55.0690267,24.9840519 55.968006,26.0746509 56.6245435,26.870949 C56.7518578,27.0254894 56.7298177,27.2536699 56.5755365,27.3812435 C56.4199589,27.5070021 56.1917784,27.4865177 56.065242,27.331718 C55.3316936,26.4420734 54.5947743,25.627106 53.6480846,25.4336712 C52.9905099,25.3006523 52.2979303,25.4772329 51.7090691,25.6693713 C50.2935722,26.1293624 48.9859424,26.8377591 47.8219626,27.7753734 C47.754805,27.8290477 47.6749418,27.8554959 47.5948193,27.8554959" id="Fill-48" fill="#3F0030"></path>
                            <path d="M32.1161701,45.5878942 L32.1050204,45.5878942 L29.3572606,45.5007707 C29.1568248,45.4945476 28.9996914,45.3267831 29.0059145,45.1271252 C29.0123969,44.9274672 29.1786056,44.7858916 29.3798193,44.7757791 L32.1275791,44.8629025 C32.3277556,44.8693849 32.484889,45.0371494 32.4786659,45.2368074 C32.4724428,45.4328351 32.3116793,45.5878942 32.1161701,45.5878942" id="Fill-50" fill="#D7D0E6"></path>
                            <path d="M57.2751172,38.7899826 C57.1822892,38.7899826 57.0902391,38.7552369 57.0202292,38.685227 C56.8786536,38.5436514 56.8750234,38.3178046 57.016599,38.1762289 L57.0238593,38.1689687 C57.047196,38.145632 57.0741628,38.1251476 57.1021667,38.1095899 L60.6402607,36.1228639 C60.8163227,36.0238128 61.0351686,36.0860438 61.133701,36.2610686 C61.2319742,36.4358341 61.1697432,36.6567543 60.9954963,36.7542496 L57.4669962,38.736049 C57.408136,38.7715726 57.3417562,38.7899826 57.2751172,38.7899826" id="Fill-52" fill="#D7D0E6"></path>
                            <path d="M57.4761753,45.5878942 C57.2809254,45.5878942 57.1199026,45.4328351 57.1136795,45.2362888 C57.107975,45.0363715 57.2653676,44.8693849 57.4655442,44.8629025 L60.3434705,44.7757791 C60.5516852,44.7858916 60.7103744,44.9274672 60.7165975,45.127903 C60.722302,45.3273017 60.5651686,45.4945476 60.3647328,45.5007707 L57.4868064,45.5878942 L57.4761753,45.5878942 Z" id="Fill-54" fill="#D7D0E6"></path>
                            <path d="M29.3182365,44.6023619 C29.1271354,44.6023619 28.9671497,44.4530074 28.9565186,44.2606098 C28.8623941,42.5917807 28.6591061,38.9434858 28.5429415,36.4557999 C28.4516693,34.4698518 28.441816,34.021529 28.4623004,33.8651735 L28.4552994,31.7713583 C28.4545215,31.6144842 28.5551284,31.4749829 28.7044829,31.425976 L31.16961,30.6138609 C31.3586368,30.550852 31.5639992,30.6548297 31.6270082,30.8448936 C31.6900171,31.0349576 31.5868173,31.2400607 31.3962347,31.3025511 L29.1808096,32.0319508 L29.187292,33.8999192 C29.187292,33.9424437 29.1802911,33.9849683 29.1652519,34.0251592 C29.1623996,34.144176 29.2274829,35.5700448 29.2666366,36.4223507 C29.3828012,38.9082216 29.58583,42.5521084 29.6802138,44.2193817 C29.6913635,44.4190396 29.5383788,44.5904343 29.3387209,44.6018433 C29.3317199,44.6023619 29.3244596,44.6023619 29.3182365,44.6023619" id="Fill-56" fill="#3F0030"></path>
                            <path d="M16.595126,89.645164 C16.5894215,89.645164 16.5842355,89.645164 16.578531,89.6443861 C16.3783545,89.6358293 16.2232955,89.4659904 16.2326302,89.2663325 C16.4561433,84.321817 15.7840481,79.4211224 14.2344951,74.70012 C14.1722641,74.5097967 14.2757232,74.3052122 14.4663058,74.2429811 C14.6561104,74.1791943 14.8609543,74.2839499 14.9234446,74.4734953 C16.5004829,79.2787689 17.1845058,84.2665869 16.9568439,89.2987445 C16.9480278,89.4934758 16.7877829,89.645164 16.595126,89.645164" id="Fill-58" fill="#3F0030"></path>
                            <path d="M16.0367839,89.4489288 C15.9068766,89.4489288 15.7813773,89.3786595 15.7160347,89.2565311 C14.7786797,87.4883917 13.6471119,85.8205997 12.3527062,84.2977543 C12.2230582,84.1447696 12.2417275,83.9160706 12.3941936,83.7864226 C12.5471782,83.656256 12.7758773,83.6751846 12.9050067,83.8273913 C14.2331209,85.3909462 15.394767,87.1025592 16.3567552,88.9165941 C16.4506203,89.0936932 16.3829441,89.3130577 16.2063635,89.4064042 C16.1521706,89.4354454 16.0940883,89.4489288 16.0367839,89.4489288" id="Fill-60" fill="#3F0030"></path>
                            <path d="M72.9321361,89.645164 C72.7387013,89.645164 72.578975,89.4926979 72.5696403,89.2982259 C72.3487201,84.247399 73.0335209,79.259581 74.6035582,74.4734953 C74.6652706,74.2839499 74.871411,74.1786757 75.0609563,74.2429811 C75.250761,74.3052122 75.354998,74.5097967 75.2919891,74.70012 C73.7491778,79.4019345 73.0773419,84.3031476 73.2946319,89.2671104 C73.3031887,89.4667683 73.1481297,89.6358293 72.9476939,89.645164 L72.9321361,89.645164 Z" id="Fill-62" fill="#3F0030"></path>
                            <path d="M73.4978163,89.4489288 C73.4405119,89.4489288 73.3816517,89.4354454 73.3279774,89.4064042 C73.1508782,89.3130577 73.0837206,89.0936932 73.177845,88.9165941 C74.152798,87.0784447 75.3144441,85.3660538 76.6298528,83.8268727 C76.7602786,83.6751846 76.9889777,83.6570338 77.1411845,83.7872004 C77.2933912,83.9168484 77.3110234,84.1463254 77.1808568,84.2985322 C75.8999345,85.7972631 74.768626,87.4653143 73.8177876,89.2565311 C73.7527043,89.3786595 73.6274643,89.4489288 73.4978163,89.4489288" id="Fill-64" fill="#3F0030"></path>
                            <path d="M26.374449,89.9204326 C26.1742724,89.9204326 26.0119531,89.7583726 26.0119531,89.5581961 L26.0119531,65.5248271 C26.0119531,65.3246506 26.1742724,65.1587011 26.374449,65.1587011 C26.5748848,65.1587011 26.7369448,65.3173903 26.7369448,65.5178261 L26.7369448,89.5581961 C26.7369448,89.7583726 26.5748848,89.9204326 26.374449,89.9204326" id="Fill-66" fill="#AFA6C9"></path>
                            <path d="M30.260596,89.4489288 C30.0601602,89.4489288 29.8981002,89.2868688 29.8981002,89.0866922 L29.8981002,68.5556344 C29.8981002,68.3551986 30.0601602,68.1931386 30.260596,68.1931386 C30.4607725,68.1931386 30.6230918,68.3551986 30.6230918,68.5556344 L30.6230918,89.0866922 C30.6230918,89.2868688 30.4607725,89.4489288 30.260596,89.4489288" id="Fill-68" fill="#AFA6C9"></path>
                            <path d="M34.3420967,89.9204326 C34.1416609,89.9204326 33.9796009,89.7583726 33.9796009,89.5581961 L33.9796009,72.346905 C33.9796009,72.1464692 34.1416609,71.9807791 34.3420967,71.9807791 C34.5422732,71.9807791 34.7045925,72.1394682 34.7045925,72.3396447 L34.7045925,89.5581961 C34.7045925,89.7583726 34.5422732,89.9204326 34.3420967,89.9204326" id="Fill-70" fill="#AFA6C9"></path>
                            <path d="M43.2945247,40.8932103 C42.7777477,40.8932103 42.2617487,40.8670214 41.750417,40.8154215 C41.5515369,40.795715 41.4063312,40.6178379 41.4268155,40.41818 C41.4467813,40.2193 41.6293257,40.0727977 41.824057,40.0948379 C43.7641098,40.2908657 45.7850628,40.0932821 47.6628845,39.5212751 C47.8581344,39.4631928 48.0572738,39.5713193 48.1150968,39.7626797 C48.1731791,39.9537809 48.0655712,40.156291 47.8736922,40.2151512 C46.3990758,40.6639926 44.8407068,40.8932103 43.2945247,40.8932103" id="Fill-72" fill="#AFA6C9"></path>
                            <path d="M44.5936495,45.7373005 C42.5597317,45.7373005 40.5255545,45.6729951 38.5014899,45.544125 C38.3018319,45.5314195 38.1504031,45.3592469 38.1631086,45.1590704 C38.1758141,44.9599311 38.3111666,44.8069464 38.5481631,44.8206891 C43.4128155,45.1313257 48.3373653,45.0639088 53.1807554,44.6251799 C53.3664114,44.612993 53.5559567,44.7540501 53.5743668,44.953708 C53.5922582,45.152588 53.4454966,45.3289093 53.246098,45.3473193 C50.3800992,45.6071339 47.4866151,45.7373005 44.5936495,45.7373005" id="Fill-74" fill="#AFA6C9"></path>
                            <path d="M42.8746726,50.9751317 C42.6794227,50.9751317 42.5178813,50.8190355 42.5121768,50.6224892 C42.5064723,50.4228312 42.6643835,50.2558446 42.8648193,50.2498808 L47.5850439,50.1119353 C47.7797752,50.1168619 47.9516884,50.2641421 47.9573929,50.4645779 C47.9630974,50.6642358 47.8051862,50.8312224 47.6047504,50.836927 L42.8847851,50.9751317 L42.8746726,50.9751317 Z" id="Fill-76" fill="#AFA6C9"></path>
                            <path d="M32.4496766,38.7948055 C32.3895199,38.7948055 32.3278075,38.7800256 32.2717996,38.7481322 L28.7272231,36.7544052 C28.5529762,36.6569099 28.4904859,36.4349525 28.5890184,36.2612242 C28.6875509,36.0861994 28.9082118,36.0231905 29.0824587,36.1227601 L32.6272944,38.1167464 C32.8015413,38.214501 32.8637723,38.4359398 32.7654992,38.6101867 C32.6988601,38.7281664 32.5764724,38.7948055 32.4496766,38.7948055" id="Fill-78" fill="#D7D0E6"></path>
                            <path d="M27.8514768,30.8260169 C27.9720494,31.1483218 28.0928814,31.4706268 28.213454,31.7929317 C28.375514,32.2256967 29.0766504,32.038485 28.9125161,31.6000155 C28.7916841,31.2779698 28.6711115,30.9556649 28.5505388,30.63336 C28.3884788,30.2003356 27.6873424,30.3880659 27.8514768,30.8260169" id="Fill-80" fill="#3F0030"></path>
                            <path d="M26.3055799,36.1182743 C27.1441432,37.2864028 27.6186549,38.5924768 27.6951472,40.0313104 C27.7197804,40.4954502 28.4450313,40.4983025 28.4201389,40.0313104 C28.3371642,38.4721635 27.8432053,37.0221802 26.9315205,35.7524077 C26.6618527,35.3766877 26.0328005,35.7381464 26.3055799,36.1182743" id="Fill-82" fill="#3F0030"></path>
                            <path d="M62.0080213,31.1564637 C61.9960936,31.1564637 61.9839067,31.1556858 61.9717198,31.1546486 L58.4771875,30.8113407 C58.2783075,30.7918935 58.1325831,30.6145351 58.1515117,30.4153957 C58.1714775,30.2159971 58.3540219,30.0746808 58.5479753,30.0899792 L62.0427669,30.4332872 C62.241647,30.4527344 62.3873713,30.6300928 62.3684427,30.8292322 C62.3497734,31.0167032 62.1918621,31.1564637 62.0080213,31.1564637" id="Fill-84" fill="#3F0030"></path>
                        </g>
                    </g>
                </g>
            </g>
        </g>
    </g>
</svg>
