<?xml version="1.0" encoding="UTF-8"?>
<svg width="106px" height="91px" viewBox="0 0 106 91" version="1.1" xmlns="http://www.w3.org/2000/svg" xmlns:xlink="http://www.w3.org/1999/xlink">
    <title>numeros-corona</title>
    <defs>
        <polygon id="path-1" points="0 0.168287997 8.75783983 0.168287997 8.75783983 8.92588782 0 8.92588782"></polygon>
    </defs>
    <g id="Page-1" stroke="none" stroke-width="1" fill="none" fill-rule="evenodd">
        <g id="App-Início" transform="translate(-189.000000, -252.000000)">
            <g id="conteudo" transform="translate(18.000000, 131.000000)">
                <g id="numeros-covid" transform="translate(148.000000, 121.000000)">
                    <g id="numeros-corona" transform="translate(23.000000, -26.000000)">
                        <path d="M103.184974,75.0666225 C101.536174,74.7671025 99.780814,76.5747825 98.883214,79.2843824 L92.7224142,77.2338225 C93.8460941,74.1200625 94.4609741,70.7639026 94.4609741,67.2627827 C94.4609741,62.4186228 93.2811341,57.8528629 91.2041742,53.8247029 L95.8793741,50.362943 C97.9510541,52.168223 100.353934,52.776383 101.453614,51.676703 C102.644974,50.485343 101.851054,47.7599031 99.680014,45.5888631 C97.5094541,43.4183031 94.7840141,42.6243832 93.5926541,43.8152631 C92.6148942,44.7935031 92.9916942,46.8032631 94.3529741,48.693503 L90.0910542,51.849023 C87.1865743,47.1479031 82.9947344,43.3280631 78.0051345,40.8810232 L78.3646544,37.2431033 C80.2947344,37.2743033 81.8403344,36.5807033 82.0452944,35.4512633 C82.2958544,34.0712633 80.4608144,32.5823034 77.9460945,32.1253434 C75.4313745,31.6679034 73.1892945,32.4167034 72.9387346,33.7967033 C72.7188946,35.0053433 74.1003345,36.2975033 76.1364945,36.9066233 L75.8384145,39.9296632 C72.5081746,38.6192632 68.8851346,37.8915832 65.0897747,37.8915832 C61.6049748,37.8915832 58.2632148,38.5021432 55.1614549,39.6162232 L54.1784149,36.6939833 C56.3580949,35.9605433 57.8177749,34.5699833 57.6036949,33.2159033 C57.3411349,31.5517434 54.6694549,30.5907834 51.637295,31.0698234 C48.604655,31.5488634 46.3596951,33.2859833 46.6222551,34.9501433 C46.8665751,36.4971833 49.197935,37.4202233 51.960335,37.1600633 L53.0720149,40.4643832 C47.5539351,42.9431031 42.9392151,47.0701431 39.8600152,52.224863 L36.0468953,49.950623 C36.0588953,49.889183 36.0742553,49.829663 36.0852953,49.767743 C36.7539353,46.0899831 35.6595353,42.8115831 33.6411353,42.4448632 C31.6232154,42.0776632 29.4449754,44.7618231 28.7768154,48.439583 C28.1086554,52.116863 29.2030554,55.3957429 31.2209754,55.7624629 C32.7636953,56.0427829 34.3966553,54.5384629 35.3806553,52.173503 L38.7819352,54.2024629 C36.8249753,58.1370228 35.7185753,62.5698228 35.7185753,67.2627827 C35.7185753,72.4482226 37.0668953,77.3163825 39.4251352,81.5447024 L36.7827353,82.2887024 C35.5452953,79.6299824 33.4107353,78.0071025 31.9136154,78.6512624 C30.3660954,79.3170224 30.0953754,82.1432624 31.3092954,84.9632623 C32.5227354,87.7832623 34.7609753,89.5290222 36.3084953,88.8632622 C37.5084953,88.3467822 37.9294552,86.5290223 37.4979353,84.4256623 L40.6419352,83.5400623 C44.6292951,89.5170222 50.748335,93.9479021 57.9137748,95.7474221 L57.6924949,98.847262 C54.3473749,98.388382 51.458735,99.434302 51.121295,101.292382 C50.766095,103.246462 53.3643349,105.354622 56.9244949,106.001182 C60.4846548,106.648222 63.6579347,105.588862 64.0131347,103.635262 C64.3083347,102.009982 62.5563348,100.280542 59.9100948,99.371422 L60.1356948,96.2101421 C61.7470548,96.4837421 63.4006547,96.6344621 65.0897747,96.6344621 C71.5126546,96.6344621 77.4492945,94.5666221 82.2833744,91.0693422 L83.2683343,93.3695021 C81.0368144,95.0754221 79.9424144,97.3731821 80.8308944,98.679262 C81.7784144,100.072702 84.6046543,99.801982 87.1428943,98.0754221 C89.6811342,96.3483821 90.9708942,93.8192621 90.0233742,92.4267822 C89.2611342,91.3059822 87.2820943,91.2791022 85.2161743,92.2035822 L84.1145743,89.6312622 C87.4068943,86.8280623 90.0699342,83.3125423 91.8704142,79.3213424 L98.381134,81.4890224 C97.9568141,84.7909423 99.002734,87.6243823 100.842094,87.9589423 C102.795694,88.3141422 104.904334,85.7159023 105.550894,82.1557424 C106.197934,78.5955824 105.138574,75.4218225 103.184974,75.0666225" id="Fill-1" fill="#FF7481"></path>
                        <path d="M60.8983188,55.7862229 C60.8983188,53.5921429 59.1199188,51.813263 56.9258389,51.813263 C54.7317589,51.813263 52.9528789,53.5921429 52.9528789,55.7862229 C52.9528789,57.9803028 54.7317589,59.7587028 56.9258389,59.7587028 C59.1199188,59.7587028 60.8983188,57.9803028 60.8983188,55.7862229" id="Fill-3" fill="#FF5C6B"></path>
                        <path d="M59.6348148,74.5282545 C57.4407349,74.5282545 55.6623349,76.3071345 55.6623349,78.5007344 C55.6623349,80.6948144 57.4407349,82.4736944 59.6348148,82.4736944 C61.8288948,82.4736944 63.6072947,80.6948144 63.6072947,78.5007344 C63.6072947,76.3071345 61.8288948,74.5282545 59.6348148,74.5282545" id="Fill-5" fill="#FF5C6B"></path>
                        <path d="M73.6658865,55.7862229 C76.6850865,55.7862229 79.1326064,53.3387029 79.1326064,50.319023 C79.1326064,47.2998231 76.6850865,44.8523031 73.6658865,44.8523031 C70.6466866,44.8523031 68.1991666,47.2998231 68.1991666,50.319023 C68.1991666,53.3387029 70.6466866,55.7862229 73.6658865,55.7862229" id="Fill-7" fill="#FF5C6B"></path>
                        <path d="M77.6385585,78.5009264 C75.4444785,78.5009264 73.6660785,80.2798064 73.6660785,82.4734064 C73.6660785,84.6679663 75.4444785,86.4463663 77.6385585,86.4463663 C79.8326384,86.4463663 81.6115184,84.6679663 81.6115184,82.4734064 C81.6115184,80.2798064 79.8326384,78.5009264 77.6385585,78.5009264" id="Fill-9" fill="#FF5C6B"></path>
                        <path d="M74.9474385,66.6345107 C74.9474385,64.7620307 73.4291985,63.2437907 71.5567186,63.2437907 C69.6837586,63.2437907 68.1655186,64.7620307 68.1655186,66.6345107 C68.1655186,68.5074706 69.6837586,70.0252306 71.5567186,70.0252306 C73.4291985,70.0252306 74.9474385,68.5074706 74.9474385,66.6345107" id="Fill-11" fill="#FF5C6B"></path>
                        <path d="M46.1868471,63.2435987 C45.0900471,63.2435987 44.2006071,64.1330387 44.2006071,65.2303187 C44.2006071,66.3271187 45.0900471,67.2165587 46.1868471,67.2165587 C47.2841271,67.2165587 48.173087,66.3271187 48.173087,65.2303187 C48.173087,64.1330387 47.2841271,63.2435987 46.1868471,63.2435987" id="Fill-13" fill="#FF5C6B"></path>
                        <path d="M51.121151,101.292478 C50.765951,103.246078 53.3641909,105.354238 56.9243509,106.001278 C60.4845108,106.648318 63.6582707,105.588958 64.0129907,103.635358 C64.3086707,102.010078 62.5566708,100.280638 59.9104308,99.371518 L60.1360308,96.2102381 C61.7473908,96.4838381 63.4005107,96.6340781 65.0901107,96.6340781 C71.5125106,96.6340781 77.4491505,94.5667181 82.2832304,91.0694382 L83.2681903,93.3695981 C81.0366704,95.0750381 79.9422704,97.3727981 80.8312304,98.679358 C81.7787504,100.072318 84.6045103,99.802078 87.1427503,98.0750381 C89.6809902,96.3484781 90.9712302,93.8193581 90.0232302,92.4263982 C89.2609902,91.3060782 87.2819503,91.2791982 85.2160303,92.2031982 L84.1144303,89.6313582 C85.2592303,88.6564782 86.3224303,87.5908783 87.3049903,86.4537583 C82.0091504,89.6971182 55.3979509,91.1707182 50.168831,71.9975986 C44.9358711,52.810079 60.8982708,38.1950392 60.8982708,38.1950392 C58.9158708,38.4796792 56.9958709,38.9572792 55.1613109,39.6158392 L54.1782709,36.6940793 C56.3584309,35.9606393 57.8176309,34.5700793 57.6035509,33.2159993 C57.3409909,31.5518394 54.6697909,30.5908794 51.637151,31.0699194 C48.604991,31.5489594 46.3595511,33.2860793 46.6221111,34.9502393 C46.8664311,36.4972793 49.197791,37.4203193 51.960191,37.1601593 L53.0718709,40.4644792 C47.5537911,42.9427191 42.9395511,47.0702391 39.8603512,52.224959 L36.0467513,49.950719 C36.0592313,49.889279 36.0741113,49.829759 36.0856313,49.767839 C36.7537913,46.0900791 35.6593913,42.8116791 33.6409913,42.4444792 C31.6230714,42.0777592 29.4453114,44.7619191 28.7771514,48.439679 C28.1085114,52.116959 29.2029114,55.3958389 31.2213114,55.7625589 C32.7635513,56.0428789 34.3965113,54.5385589 35.3805113,52.173119 L38.7817912,54.2025589 C36.8248313,58.1371188 35.7184313,62.5699188 35.7184313,67.2628787 C35.7184313,72.4483186 37.0672313,77.3159985 39.4249912,81.5443184 L36.7825913,82.2887984 C35.5456313,79.6300784 33.4105913,78.0071985 31.9134714,78.6513584 C30.3659514,79.3171184 30.0952314,82.1428784 31.3091514,84.9628783 C32.5225914,87.7828783 34.7613113,89.5291182 36.3088313,88.8628782 C37.5083513,88.3468782 37.9297912,86.5291183 37.4982713,84.4257583 L40.6417912,83.5401583 C44.6291511,89.5171182 50.748191,93.9479981 57.9136308,95.7475181 L57.6923509,98.847358 C54.3477109,98.388478 51.459071,99.433918 51.121151,101.292478" id="Fill-15" fill="#FF5C6B"></path>
                        <g id="Group-26" transform="translate(0.000000, 34.242719)">
                            <mask id="mask-2" fill="white">
                                <use xlink:href="#path-1"></use>
                            </mask>
                            <g id="Clip-25"></g>
                            <path d="M4.37879991,0.168287997 C1.96055996,0.168287997 -0.000239999995,2.12860796 -0.000239999995,4.54732791 C-0.000239999995,6.96556786 1.96055996,8.92588782 4.37879991,8.92588782 C6.79703986,8.92588782 8.75783983,6.96556786 8.75783983,4.54732791 C8.75783983,2.12860796 6.79703986,0.168287997 4.37879991,0.168287997" id="Fill-24" fill="#FFFFFF" mask="url(#mask-2)"></path>
                        </g>
                        <path d="M12.9168477,85.1670223 C10.6195678,85.1670223 8.75764783,87.0289423 8.75764783,89.3267022 C8.75764783,91.6235022 10.6195678,93.4859021 12.9168477,93.4859021 C15.2141277,93.4859021 17.0765277,91.6235022 17.0765277,89.3267022 C17.0765277,87.0289423 15.2141277,85.1670223 12.9168477,85.1670223" id="Fill-29" fill="#FFFFFF"></path>
                        <path d="M98.652862,26.7745915 C97.5042221,26.7745915 96.5730221,27.7057914 96.5730221,28.8544314 C96.5730221,30.0030714 97.5042221,30.9342714 98.652862,30.9342714 C99.801502,30.9342714 100.732702,30.0030714 100.732702,28.8544314 C100.732702,27.7057914 99.801502,26.7745915 98.652862,26.7745915" id="Fill-31" fill="#FFFFFF"></path>
                        <path d="M101.725294,109.038574 C99.752014,109.038574 98.152654,110.638414 98.152654,112.611214 C98.152654,114.584494 99.752014,116.184334 101.725294,116.184334 C103.698574,116.184334 105.297934,114.584494 105.297934,112.611214 C105.297934,110.638414 103.698574,109.038574 101.725294,109.038574" id="Fill-44" fill="#FFFFFF"></path>
                    </g>
                </g>
            </g>
        </g>
    </g>
</svg>