<?xml version="1.0" encoding="UTF-8"?>
<svg width="114px" height="52px" viewBox="0 0 114 52" version="1.1" xmlns="http://www.w3.org/2000/svg" xmlns:xlink="http://www.w3.org/1999/xlink">
    <title>radar saúde</title>
    <defs>
        <polygon id="path-1" points="0.479171029 0.0736982574 15.5657365 0.0736982574 15.5657365 15.5517656 0.479171029 15.5517656"></polygon>
        <polygon id="path-3" points="0 0.41386461 16.9236333 0.41386461 16.9236333 21.7430422 0 21.7430422"></polygon>
        <polygon id="path-5" points="0.419852129 0.247211982 15.701635 0.247211982 15.701635 16.3295988 0.419852129 16.3295988"></polygon>
    </defs>
    <g id="Page-1" stroke="none" stroke-width="1" fill="none" fill-rule="evenodd">
        <g id="App-Onboarding" transform="translate(-103.000000, -275.000000)">
            <g id="radar-saúde" transform="translate(103.000000, 275.000000)">
                <path d="M98.415226,29.2340642 C90.787489,29.2340642 84.5822414,23.0288167 84.5822414,15.4010797 C84.5822414,12.6459135 85.3896494,9.98600326 86.9173741,7.70802423 C87.0561757,7.50118265 87.3383148,7.44312185 87.5460636,7.58464504 C87.7547196,7.72344663 87.8100588,8.00558581 87.67035,8.21333459 C86.2433245,10.3416256 85.4894414,12.8264463 85.4894414,15.4010797 C85.4894414,22.5280423 91.2882634,28.3268643 98.415226,28.3268643 C105.542189,28.3268643 111.341011,22.5280423 111.341011,15.4010797 C111.341011,11.9074527 109.969324,8.63427536 107.479061,6.18574274 C105.046858,3.79254932 101.827205,2.47529502 98.415226,2.47529502 C96.427551,2.47529502 94.5206167,2.91437979 92.7470408,3.78075572 C92.5220553,3.88961971 92.2498953,3.79708532 92.1401241,3.57300694 C92.0303529,3.34802135 92.1228873,3.07586137 92.3487801,2.96609018 C94.2466423,2.03802465 96.2878422,1.56809508 98.415226,1.56809508 C102.066706,1.56809508 105.512251,2.97879098 108.115008,5.53890919 C110.780361,8.1598098 112.248211,11.6625087 112.248211,15.4010797 C112.248211,23.0288167 106.042963,29.2340642 98.415226,29.2340642" id="Fill-1" fill="#FFFFFF"></path>
                <path d="M98.415226,24.5279646 C93.382988,24.5279646 89.2878875,20.4337713 89.2878875,15.4006261 C89.2878875,13.9382198 89.6426027,12.4848855 90.3130234,11.1975688 C90.4282378,10.9743976 90.7022122,10.8891208 90.9244762,11.0043352 C91.1467402,11.1195496 91.2329242,11.393524 91.1177098,11.6157879 C90.5144218,12.7751895 90.1950874,14.0833718 90.1950874,15.4006261 C90.1950874,19.9339041 93.8828552,23.6207647 98.415226,23.6207647 C102.947597,23.6207647 106.634457,19.9339041 106.634457,15.4006261 C106.634457,13.190687 105.768989,11.1159208 104.198626,9.5609801 C102.650035,8.02690501 100.596135,7.18230187 98.415226,7.18230187 C97.1297237,7.18230187 95.8995606,7.46988425 94.7573959,8.03779141 C94.5342247,8.1502842 94.2602503,8.05956421 94.1495719,7.83457862 C94.0379864,7.61050024 94.1287063,7.33834026 94.3536919,7.22675467 C95.6210502,6.59443631 96.9882005,6.27510194 98.415226,6.27510194 C100.836543,6.27510194 103.117243,7.21314667 104.837294,8.91596094 C106.580933,10.6432696 107.541657,12.945743 107.541657,15.4006261 C107.541657,20.4337713 103.447464,24.5279646 98.415226,24.5279646" id="Fill-3" fill="#FFFFFF"></path>
                <path d="M98.415226,20.6076815 C95.5439382,20.6076815 93.2088056,18.2725489 93.2088056,15.4012611 C93.2088056,14.7217684 93.337628,14.0604196 93.5925512,13.4371732 C93.6878072,13.2049301 93.9527096,13.0933445 94.1840455,13.1876933 C94.4153815,13.2829493 94.5269671,13.5478516 94.4326183,13.7791876 C94.2221479,14.29357 94.1160055,14.8397043 94.1160055,15.4012611 C94.1160055,17.7717745 96.0447126,19.7004816 98.415226,19.7004816 C100.785739,19.7004816 102.714447,17.7717745 102.714447,15.4012611 C102.714447,14.1964996 102.203693,13.0380053 101.312823,12.2251541 C99.8758179,10.913343 97.5869525,10.7573046 95.9893734,11.8513878 C95.783439,11.9947254 95.5012998,11.9393862 95.3588695,11.7334518 C95.2173463,11.5266102 95.2699639,11.244471 95.4768054,11.1029478 C97.4136773,9.77480712 100.183359,9.96713351 101.924275,11.5547334 C103.002936,12.5390453 103.621646,13.9415764 103.621646,15.4012611 C103.621646,18.2725489 101.286514,20.6076815 98.415226,20.6076815" id="Fill-5" fill="#FFFFFF"></path>
                <path d="M107.796853,6.84636574 C107.547373,6.84636574 107.297893,6.75201694 107.106474,6.56331936 C104.774063,4.26991793 101.687768,3.00618842 98.4154982,3.00618842 C96.5085639,3.00618842 94.6805561,3.42712919 92.9795562,4.25721713 C92.4905754,4.49762511 91.9008955,4.29350512 91.6632091,3.80543156 C91.4246155,3.3164508 91.6269211,2.72767804 92.1149947,2.48908446 C94.0872473,1.52563813 96.2064664,1.03756456 98.4154982,1.03756456 C102.207594,1.03756456 105.784683,2.50178526 108.487232,5.16078826 C108.874606,5.54181223 108.880049,6.16505859 108.499025,6.55243296 C108.305792,6.74838814 108.051776,6.84636574 107.796853,6.84636574" id="Fill-7" fill="#FFFFFF"></path>
                <path d="M104.518051,10.2226917 C104.267664,10.2226917 104.017276,10.1283429 103.82495,9.93873815 C102.377059,8.50264065 100.454702,7.71246951 98.4153167,7.71246951 C97.2123696,7.71246951 96.0620401,7.98190789 94.9942658,8.51352705 C94.5070994,8.75665663 93.9156051,8.55797985 93.6742899,8.07081349 C93.4320675,7.58455432 93.6307443,6.99305996 94.1170035,6.75083758 C95.4596594,6.08313843 96.9048289,5.74384566 98.4153167,5.74384566 C100.978157,5.74384566 103.391308,6.73632238 105.211151,8.53892865 C105.596711,8.92085982 105.60034,9.54501338 105.217502,9.93148055 C105.025175,10.1256213 104.771159,10.2226917 104.518051,10.2226917" id="Fill-9" fill="#FFFFFF"></path>
                <path d="M101.617914,12.8743464 C101.381135,12.8743464 101.143448,12.7890696 100.954751,12.6176088 C99.6946501,11.4681865 97.6879238,11.3293849 96.2890215,12.2892025 C95.841772,12.5967432 95.2285048,12.4815288 94.920964,12.0333721 C94.6134233,11.5852153 94.7277305,10.9719482 95.1767944,10.6644074 C96.1329832,10.0103162 97.2524679,9.66467305 98.4154982,9.66467305 C99.8497813,9.66467305 101.222375,10.1962922 102.281984,11.1624601 C102.683874,11.5298761 102.711997,12.1522153 102.345488,12.5531976 C102.151348,12.7663896 101.884631,12.8743464 101.617914,12.8743464" id="Fill-11" fill="#FFFFFF"></path>
                <g id="Group-15" transform="translate(97.070393, 0.833535)">
                    <mask id="mask-2" fill="white">
                        <use xlink:href="#path-1"></use>
                    </mask>
                    <g id="Clip-14"></g>
                    <path d="M1.46358565,15.5517656 C1.21682727,15.5517656 0.969161689,15.4592312 0.777742503,15.2732552 C0.387646531,14.8949528 0.378574532,14.2717065 0.757784104,13.8816105 L13.8749879,0.373403492 C14.2541975,-0.0185068786 14.8783511,-0.026671678 15.2666326,0.352537894 C15.6576358,0.730840266 15.6667078,1.35499382 15.2874982,1.74418259 L2.1693872,15.2532968 C1.97706081,15.4528808 1.72032323,15.5517656 1.46358565,15.5517656" id="Fill-13" fill="#FFFFFF" mask="url(#mask-2)"></path>
                </g>
                <path d="M8.52268977,13.619339 C11.8512063,13.619339 13.1503166,12.0970575 13.1503166,9.60135049 C13.1503166,7.10473628 11.8512063,5.4617972 8.48186577,5.4617972 L4.0583589,5.4617972 L4.0583589,13.619339 L8.52268977,13.619339 Z M1.54178629,3.22917816 L8.56351377,3.22917816 C13.433363,3.22917816 15.625158,5.92809796 15.625158,9.60135049 C15.625158,12.3610527 14.3877373,14.5220029 11.7396207,15.4255741 L16.4380092,24.0094998 L13.515011,24.0094998 L9.13142093,15.8818956 C8.95905294,15.8918748 8.78668495,15.8918748 8.60433777,15.8918748 L4.0583589,15.8918748 L4.0583589,24.0094998 L1.54178629,24.0094998 L1.54178629,3.22917816 Z" id="Fill-16" fill="#FFFFFF"></path>
                <path d="M28.8257336,18.3679863 L28.8257336,16.1761913 C28.4202152,16.6633577 25.7004298,16.9482184 24.6861803,17.068876 C22.8182556,17.3129128 21.1544509,17.88082 21.1544509,19.7079206 C21.1544509,21.3717253 22.534302,22.223586 24.4421435,22.223586 C27.2834937,22.223586 28.8257336,20.3157446 28.8257336,18.3679863 M18.7594431,19.5854486 C18.7594431,16.0138025 21.9155917,15.3742265 24.8068379,14.999553 C27.648188,14.6339514 28.8257336,14.7355578 28.8257336,13.5788779 L28.8257336,13.4981371 C28.8257336,11.4986684 27.7398152,10.3320093 25.538041,10.3320093 C23.2546188,10.3320093 22.0063117,11.5494716 21.4792285,12.6852859 L19.2057855,11.8742492 C20.424155,9.03289901 23.1022092,8.22095507 25.456393,8.22095507 C27.4458825,8.22095507 31.2207414,8.78886223 31.2207414,13.7403595 L31.2207414,24.0098627 L28.8257336,24.0098627 L28.8257336,21.8997157 L28.7032616,21.8997157 C28.2170024,22.9139652 26.7963273,24.3745571 24.0774491,24.3745571 C21.1136269,24.3745571 18.7594431,22.6291044 18.7594431,19.5854486" id="Fill-18" fill="#FFFFFF"></path>
                <path d="M46.2876086,16.2169246 C46.2876086,12.7260192 44.7453687,10.3727426 41.8223705,10.3727426 C38.7787147,10.3727426 37.2763917,12.929232 37.2763917,16.2169246 C37.2763917,19.5454411 38.8195387,22.1826713 41.8223705,22.1826713 C44.7045447,22.1826713 46.2876086,19.7486539 46.2876086,16.2169246 M34.882291,16.2577486 C34.882291,11.3470753 37.6020764,8.22177155 41.5384169,8.22177155 C44.5820727,8.22177155 45.5155814,10.0878818 46.0435718,10.900733 L46.2467846,10.900733 L46.2467846,3.22945032 L48.6417924,3.22945032 L48.6417924,24.009772 L46.3275254,24.009772 L46.3275254,21.6147642 L46.0435718,21.6147642 C45.5155814,22.4675321 44.5013319,24.3345496 41.4985001,24.3345496 C37.6020764,24.3345496 34.882291,21.2092458 34.882291,16.2577486" id="Fill-20" fill="#FFFFFF"></path>
                <path d="M62.6933215,18.3679863 L62.6933215,16.1761913 C62.2878031,16.6633577 59.5680177,16.9482184 58.5537682,17.068876 C56.6858435,17.3129128 55.0220388,17.88082 55.0220388,19.7079206 C55.0220388,21.3717253 56.4018899,22.223586 58.3097314,22.223586 C61.1510816,22.223586 62.6933215,20.3157446 62.6933215,18.3679863 M52.627031,19.5854486 C52.627031,16.0138025 55.7831796,15.3742265 58.6744258,14.999553 C61.5157759,14.6339514 62.6933215,14.7355578 62.6933215,13.5788779 L62.6933215,13.4981371 C62.6933215,11.4986684 61.6074031,10.3320093 59.4056289,10.3320093 C57.1222067,10.3320093 55.8738996,11.5494716 55.3468164,12.6852859 L53.0733734,11.8742492 C54.2917429,9.03289901 56.9697971,8.22095507 59.3239809,8.22095507 C61.3134704,8.22095507 65.0883293,8.78886223 65.0883293,13.7403595 L65.0883293,24.0098627 L62.6933215,24.0098627 L62.6933215,21.8997157 L62.5708495,21.8997157 C62.0845903,22.9139652 60.6639152,24.3745571 57.945037,24.3745571 C54.9812148,24.3745571 52.627031,22.6291044 52.627031,19.5854486" id="Fill-22" fill="#FFFFFF"></path>
                <path d="M69.4796306,8.42425858 L71.7929904,8.42425858 L71.7929904,10.7784424 L71.9553792,10.7784424 C72.5232863,9.23620252 74.1471742,8.1802218 76.0141917,8.1802218 C76.3698141,8.1802218 76.9985036,8.2010874 77.272478,8.22104579 L77.272478,10.6568776 C77.1100892,10.6160536 76.4505548,10.4935816 75.8109789,10.4935816 C73.5384431,10.4935816 71.8746384,12.0358215 71.8746384,14.147783 L71.8746384,24.0099534 L69.4796306,24.0099534 L69.4796306,8.42425858 Z" id="Fill-24" fill="#FFFFFF"></path>
                <g id="Group-28" transform="translate(0.000000, 28.956733)">
                    <mask id="mask-4" fill="white">
                        <use xlink:href="#path-3"></use>
                    </mask>
                    <g id="Clip-27"></g>
                    <path d="M8.66448512,4.5643043 C6.71672687,4.5643043 5.74239414,5.38532024 5.73332214,6.52204176 C5.69249814,7.75946247 6.88909485,8.38905922 8.77607071,8.79548479 L10.5623474,9.20100316 C14.6610767,10.1036671 16.9036749,12.1339805 16.9236333,15.4516107 C16.9036749,19.3988376 13.8400607,21.7430422 8.66448512,21.7430422 C3.43901351,21.7430422 0.0606009555,19.418796 -0.000181439987,14.558926 L4.80888541,14.558926 C4.920471,16.5574874 6.38197009,17.5916953 8.60460993,17.5916953 C10.6231298,17.5916953 11.8106545,16.709897 11.8306129,15.4407243 C11.8106545,14.2740652 10.7855186,13.6553548 8.50209633,13.1273645 L6.33116689,12.6202397 C2.73956236,11.7992238 0.526901721,10.0229263 0.53778812,6.86677773 C0.506943323,3.00119882 3.92617987,0.41386461 8.67537152,0.41386461 C13.505304,0.41386461 16.5997629,3.04202282 16.6405869,6.92756013 L11.8306129,6.92756013 C11.6990689,5.44700984 10.6231298,4.5643043 8.66448512,4.5643043" id="Fill-26" fill="#FFFFFF" mask="url(#mask-4)"></path>
                </g>
                <path d="M28.2685314,44.895601 L28.2685314,43.4132363 C27.7106034,43.7080763 26.5738819,43.9112891 25.6503523,44.0437403 C24.2405637,44.2560251 23.4485781,44.8647562 23.4485781,45.8690265 C23.4485781,46.9041417 24.2605221,47.4520904 25.4072228,47.4520904 C26.9902867,47.4520904 28.2685314,46.4178825 28.2685314,44.895601 M18.7510969,46.1130633 C18.7510969,42.662982 21.3883271,41.4963229 24.5444756,41.2323277 C27.2025714,40.9991773 28.2376866,40.7959645 28.2376866,39.8424974 L28.2376866,39.7916942 C28.2376866,38.7465999 27.4665666,38.1578271 26.2481971,38.1578271 C24.9400148,38.1578271 24.1180917,38.7665583 23.9048997,39.7608494 L19.3289832,39.5984606 C19.7245224,36.7571104 22.0986646,34.6469634 26.2890211,34.6469634 C30.2562064,34.6469634 33.1891838,36.5448256 33.1891838,39.8424974 L33.1891838,50.4349638 L28.5216401,50.4349638 L28.5216401,48.2640344 L28.4009825,48.2640344 C27.5473074,49.8570774 26.0458915,50.698959 23.8740549,50.698959 C20.8911815,50.698959 18.7510969,49.1975431 18.7510969,46.1130633" id="Fill-29" fill="#FFFFFF"></path>
                <path d="M44.0851086,28.2949309 L48.4795851,28.2949309 L45.4150637,32.8717545 L42.0357439,32.8717545 L44.0851086,28.2949309 Z M46.2769036,34.8503576 L51.2284009,34.8503576 L51.2284009,50.4351452 L46.5000748,50.4351452 L46.5000748,47.5330127 L46.337686,47.5330127 C45.6482141,49.4417613 43.9136478,50.638358 41.5785152,50.638358 C38.3724706,50.638358 36.232386,48.3050398 36.2214996,44.7841969 L36.2214996,34.8503576 L41.1838832,34.8503576 L41.1838832,43.8098641 C41.1929552,45.5045136 42.1273711,46.5387215 43.6496526,46.5387215 C45.1211309,46.5387215 46.2769036,45.524472 46.2769036,43.7082577 L46.2769036,34.8503576 Z" id="Fill-31" fill="#FFFFFF"></path>
                <path d="M64.6831738,42.6426607 C64.6831738,40.0952433 63.6281003,38.5230658 61.8109788,38.5230658 C59.9648269,38.5230658 58.9505774,40.1360673 58.9505774,42.6426607 C58.9505774,45.1583261 59.9748061,46.7921932 61.8109788,46.7921932 C63.6172139,46.7921932 64.6831738,45.1692125 64.6831738,42.6426607 M53.8557426,42.6526399 C53.8557426,37.1531939 56.8086784,34.6475077 60.0664333,34.6475077 C62.5213164,34.6475077 63.8812091,36.087234 64.4699818,37.5187955 L64.5715882,37.5187955 L64.5715882,29.6551865 L69.5330646,29.6551865 L69.5330646,50.4355081 L64.6223914,50.4355081 L64.6223914,47.9089563 L64.4699818,47.9089563 C63.8403851,49.350497 62.4405756,50.6586793 60.0863917,50.6586793 C56.6471968,50.6586793 53.8557426,47.9588523 53.8557426,42.6526399" id="Fill-33" fill="#FFFFFF"></path>
                <g id="Group-37" transform="translate(71.668795, 34.399933)">
                    <mask id="mask-6" fill="white">
                        <use xlink:href="#path-5"></use>
                    </mask>
                    <g id="Clip-36"></g>
                    <path d="M11.0848945,6.55860192 C11.0649361,4.96555883 9.88739063,3.82883732 8.25352355,3.82883732 C6.60967727,3.82883732 5.38223576,5.00547563 5.31147417,6.55860192 L11.0848945,6.55860192 Z M0.419852129,8.30405459 C0.419852129,3.47412214 3.44445671,0.247211982 8.15282436,0.247211982 C12.5763312,0.247211982 15.701635,3.06769657 15.701635,8.2024482 L15.701635,9.4398689 L5.31147417,9.4398689 L5.31147417,9.57141289 C5.31147417,11.4801616 6.48811248,12.7475199 8.39595394,12.7475199 C9.69506425,12.7475199 10.7093138,12.1895919 11.0948737,11.1544768 L15.6508318,11.286928 C15.0820174,14.3514493 12.3930768,16.3300524 8.30523395,16.3300524 C3.40363271,16.3300524 0.419852129,13.2963758 0.419852129,8.30405459 L0.419852129,8.30405459 Z" id="Fill-35" fill="#FFFFFF" mask="url(#mask-6)"></path>
                </g>
            </g>
        </g>
    </g>
</svg>