<?xml version="1.0" encoding="UTF-8"?>
<svg width="113px" height="92px" viewBox="0 0 113 92" version="1.1" xmlns="http://www.w3.org/2000/svg" xmlns:xlink="http://www.w3.org/1999/xlink">
    <title>sintomas-covid</title>
    <defs>
        <polygon id="path-1" points="0.235928008 0.139919997 40.6659565 0.139919997 40.6659565 39.4221832 0.235928008 39.4221832"></polygon>
        <polygon id="path-3" points="0 0.116817968 32.4077994 0.116817968 32.4077994 63.5194067 0 63.5194067"></polygon>
    </defs>
    <g id="Page-1" stroke="none" stroke-width="1" fill="none" fill-rule="evenodd" opacity="0.690290179">
        <g id="App-Início" transform="translate(-19.000000, -146.000000)">
            <g id="conteudo" transform="translate(18.000000, 131.000000)">
                <g id="sintomas">
                    <g id="Group-121">
                        <g id="sintomas-covid" transform="translate(-8.000000, 15.000000)">
                            <path d="M103.84663,113.83963 L103.84663,116.63755 L103.84663,116.65939 L32.0424714,116.65939 L32.0424714,116.63755 C31.7719914,114.09523 31.3411914,111.41419 30.8223114,108.75499 C26.6583115,102.53803 17.7459116,101.27443 17.7459116,101.27443 C18.7613516,94.7214701 21.1428716,86.1376303 21.1428716,86.1376303 C21.9975116,81.2065904 23.3343115,79.2635504 25.1023915,76.7649105 C25.6135915,76.0417905 26.2200715,75.3112305 26.8337515,74.5441905 C26.8409515,74.5367505 26.8483915,74.5295505 26.8555915,74.5295505 C31.0049514,70.8474706 48.055751,64.5868307 48.055751,64.5868307 C48.055751,64.5868307 48.099671,65.1421907 48.501431,65.9531507 C49.531511,68.0860306 52.9867909,71.9946706 64.3685507,72.2574706 C80.0751104,72.6227506 82.7561504,62.1030708 82.7561504,62.1030708 C82.7561504,62.1030708 111.67063,68.9116306 118.97599,84.9834703 C126.281349,101.05507 124.82023,112.01323 124.82023,112.01323 L122.78215,112.18843 L103.84663,113.83963 Z" id="Fill-1" fill="#917DBA"></path>
                            <g id="Group-7" transform="translate(46.079999, 0.100080)">
                                <mask id="mask-2" fill="white">
                                    <use xlink:href="#path-1"></use>
                                </mask>
                                <g id="Clip-6"></g>
                                <path d="M18.7414316,0.411623992 C35.0909513,2.60330395 43.9229511,10.0034638 39.5544712,20.0484236 C39.5544712,20.0484236 37.6258313,30.5462634 36.4495913,32.6940234 C34.8497513,33.1176233 33.8124713,34.3814633 33.8124713,34.3814633 C33.5129513,35.6964233 33.1987913,37.5665033 32.9285513,39.4221832 L31.4455914,39.1956232 C32.2855914,33.9943433 32.4463914,26.2068235 31.2555114,21.5971436 C29.9770314,16.6733037 30.5249514,15.2121837 26.3244715,15.1171437 C22.1237516,15.0223437 6.23479188,13.9629837 6.23479188,13.9629837 C6.23479188,13.9629837 2.90359194,19.3764236 1.32559197,28.0622634 L1.31815197,28.0622634 C1.31815197,27.6751435 -2.57560795,18.5289836 4.40839191,10.0034638 C4.40839191,10.0034638 2.39935195,-1.78005596 18.7414316,0.411623992" id="Fill-5" fill="#3F0030" mask="url(#mask-2)"></path>
                            </g>
                            <path d="M84.8235823,32.8451273 C87.6579823,33.7508873 82.4785424,46.9004871 78.1244624,46.0823271 C78.1244624,46.0823271 78.5118224,42.8243271 79.0086224,39.5221672 C79.2786224,37.6667273 79.5930224,35.7964073 79.8925424,34.4814473 C79.8925424,34.4814473 80.9298224,33.2176073 82.5296624,32.7940073 C83.2091023,32.6041674 83.9835823,32.5748874 84.8235823,32.8451273" id="Fill-8" fill="#F57788"></path>
                            <path d="M77.5254945,39.2957272 L79.0084544,39.5222872 C78.5116544,42.8242071 78.1245344,46.0824471 78.1245344,46.0824471 C78.1245344,46.0824471 77.3063745,49.048367 77.2845345,52.459967 C75.4946145,56.0906869 72.4043746,57.8952468 72.4043746,57.8952468 C61.8993348,64.6601267 55.3245349,62.4902868 51.430775,56.8723669 C51.423575,56.8651669 51.423575,56.8579669 51.423575,56.8579669 C50.320295,55.2581269 49.429175,53.3806069 48.735095,51.349727 C49.684775,51.342287 51.116615,51.254687 52.555655,50.889407 C52.329335,53.9357269 53.8415749,54.9730069 54.8716549,55.1266069 C56.1501349,55.3018069 56.3327749,52.459967 56.3327749,52.459967 L59.9853348,53.0225269 C59.9853348,55.1266069 61.4464548,55.7618869 61.4464548,55.7618869 C66.9254147,54.3010069 64.8213347,49.457567 64.5510947,48.916847 C64.2808547,48.361727 53.0452549,48.361727 53.0452549,48.361727 C53.0159749,48.463967 52.9866949,48.566207 52.9648549,48.668447 C52.168775,48.288767 51.218855,47.894207 50.232695,47.6311671 C50.561495,46.8204471 51.087335,45.9655671 51.949415,45.3518871 C53.1621349,44.4826071 55.4560549,44.4972471 57.6110149,44.5337271 C63.3604547,44.6213271 66.2094947,45.8050071 66.8450147,48.361727 C67.4733347,50.918687 68.5691746,53.0225269 70.3955746,51.561407 C72.2217346,50.100527 76.3348545,45.5054871 77.3354145,40.3622872 C77.4011745,40.0190872 77.4669345,39.6610072 77.5254945,39.2957272" id="Fill-10" fill="#3F0030"></path>
                            <path d="M54.2433829,31.1576394 C54.2433829,30.2590794 53.5128229,29.5213194 52.607063,29.5213194 C51.708263,29.5213194 50.977943,30.2590794 50.977943,31.1576394 C50.977943,32.0633994 51.708263,32.7939593 52.607063,32.7939593 C53.5128229,32.7939593 54.2433829,32.0633994 54.2433829,31.1576394 M69.2193826,32.7939593 C69.2193826,31.8881994 68.4888226,31.1576394 67.5830627,31.1576394 C66.6842627,31.1576394 65.9537027,31.8881994 65.9537027,32.7939593 C65.9537027,33.6925193 66.6842627,34.4305193 67.5830627,34.4305193 C68.4888226,34.4305193 69.2193826,33.6925193 69.2193826,32.7939593 M77.3354625,21.6973196 C78.5263424,26.3069995 78.3655424,34.0942793 77.5255425,39.2957992 C77.4669825,39.6610792 77.4012225,40.0189192 77.3354625,40.3623592 C76.3346625,45.5053191 72.2217826,50.100359 70.3953826,51.561479 C68.5689826,53.0225989 67.4733827,50.918519 66.8450627,48.361799 C66.2095427,45.8048391 63.3605027,44.6213991 57.6110629,44.5335591 C55.4561029,44.4973191 53.1621829,44.4826791 51.949463,45.3519591 C51.087383,45.9656391 50.561543,46.8202791 50.232743,47.6312391 C49.611863,47.4632391 48.976103,47.3389191 48.355223,47.3024391 C48.136103,47.2877991 47.887703,47.2731591 47.6174631,47.2585191 C46.9305831,44.0441991 46.6166631,40.6765192 46.5945831,37.5572393 C46.5653031,34.1309993 46.8941031,30.9749994 47.4055431,28.1624394 C48.983543,19.4763596 52.314743,14.0631597 52.314743,14.0631597 C52.314743,14.0631597 68.2037026,15.1225197 72.4044226,15.2173197 C76.6049025,15.3123597 76.0572225,16.7732397 77.3354625,21.6973196" id="Fill-12" fill="#F57788"></path>
                            <path d="M77.2844385,52.459967 C77.2551585,56.3609269 78.2705984,60.8393268 82.7561984,62.1029268 C82.7561984,62.1029268 80.0749184,72.6226066 64.3685987,72.2575666 C52.9868389,71.9945266 49.531319,68.0861266 48.501239,65.9530067 C60.8765988,69.6202066 72.4045186,57.8952468 72.4045186,57.8952468 C72.4045186,57.8952468 75.4945185,56.0906869 77.2844385,52.459967" id="Fill-14" fill="#F57788"></path>
                            <path d="M67.5829427,31.1576394 C68.4887026,31.1576394 69.2192626,31.8881994 69.2192626,32.7939593 C69.2192626,33.6925193 68.4887026,34.4305193 67.5829427,34.4305193 C66.6843827,34.4305193 65.9538227,33.6925193 65.9538227,32.7939593 C65.9538227,31.8881994 66.6843827,31.1576394 67.5829427,31.1576394" id="Fill-16" fill="#3F0030"></path>
                            <path d="M55.0688389,49.881263 C55.0834789,49.873823 55.0981189,49.866623 55.1127589,49.859423 C55.1127589,49.859423 54.2360389,49.282223 52.9647589,48.668543 C52.9868389,48.566303 53.0161189,48.464063 53.0451589,48.361583 C53.0451589,48.361583 64.2807587,48.361583 64.5512387,48.916943 C64.8214787,49.457423 66.9253187,54.3011029 61.4463588,55.7619829 C61.4463588,55.7619829 59.9852388,55.1264629 59.9852388,53.0223829 L56.3326789,52.460063 C56.3326789,52.460063 56.1500389,55.3019029 54.8715589,55.1264629 C53.8414789,54.9731029 52.329239,53.9358229 52.555799,50.889263 C53.4250789,50.677583 54.3017989,50.356223 55.0688389,49.881263" id="Fill-18" fill="#F57788"></path>
                            <path d="M51.430751,56.8724389 C55.3245109,62.4901188 61.8993108,64.6599587 72.4043506,57.8953188 C72.4043506,57.8953188 60.8766708,69.6202786 48.501311,65.9530787 C48.099551,65.1421187 48.055631,64.5869987 48.055631,64.5869987 C53.6152309,61.6357188 51.547631,57.1208389 51.430751,56.8724389" id="Fill-20" fill="#C8283B"></path>
                            <path d="M47.0183031,49.647479 L47.0183031,48.091559 L43.4094231,47.908679 L43.4094231,49.413719 L47.0183031,49.647479 Z M55.0688629,49.881239 C54.3018229,50.356199 53.4251029,50.677559 52.555823,50.889239 C51.116783,51.254519 49.684703,51.342359 48.735023,51.349559 C48.055823,51.356999 47.6247831,51.320279 47.6247831,51.320279 L38.9826232,50.721479 L38.4344632,50.684759 L38.3833432,50.648279 C38.9094232,49.932359 38.4930232,48.697799 38.4930232,48.697799 L35.5635833,47.0468391 C36.1187033,47.0468391 36.5279033,46.9443591 36.8346233,46.7765991 C37.1999033,46.7909991 44.0888631,47.0761191 47.6173431,47.2585191 C47.887823,47.2731591 48.135983,47.2877991 48.355103,47.3024391 C48.976223,47.3389191 49.611743,47.4632391 50.232863,47.6312391 C51.218783,47.894279 52.168703,48.288599 52.9647829,48.668519 C54.2360629,49.282199 55.1127829,49.859399 55.1127829,49.859399 C55.0981429,49.866599 55.0835029,49.873799 55.0688629,49.881239 L55.0688629,49.881239 Z" id="Fill-22" fill="#FFFFFF"></path>
                            <path d="M52.606967,29.5212234 C53.5127269,29.5212234 54.2432869,30.2589834 54.2432869,31.1575434 C54.2432869,32.0635434 53.5127269,32.7941033 52.606967,32.7941033 C51.708407,32.7941033 50.977847,32.0635434 50.977847,31.1575434 C50.977847,30.2589834 51.708407,29.5212234 52.606967,29.5212234" id="Fill-24" fill="#3F0030"></path>
                            <polygon id="Fill-26" fill="#3F0030" points="47.0183031 48.091463 47.0183031 49.647383 43.4094231 49.413623 43.4094231 47.908823"></polygon>
                            <path d="M38.4345592,50.684807 L38.9824792,50.721287 C38.9824792,50.721287 36.0019193,55.3967269 34.6576793,57.8951268 C34.0586393,59.0274468 33.1747193,60.2840868 32.3565594,61.7084868 L32.4076794,57.8951268 C32.4076794,57.8951268 31.6917594,56.6749669 30.5740794,55.3967269 L30.5812794,55.3895269 L31.2971994,53.9430469 C31.8232794,54.9220069 32.5538394,55.9739269 33.3794393,56.2516069 C35.0229593,56.7992869 35.8192793,54.9073669 35.8192793,54.9073669 L33.5035193,50.955047 L31.8158394,49.070327 C31.9547994,49.201847 33.1600793,50.275607 36.2431193,51.013607 C37.4555993,51.305687 38.0839192,51.064727 38.3834392,50.648327 L38.4345592,50.684807 Z" id="Fill-28" fill="#F57788"></path>
                            <path d="M38.4930232,48.697775 C38.4930232,48.697775 38.9094232,49.932335 38.3833432,50.648255 C38.0838232,51.064655 37.4557433,51.305855 36.2430233,51.013535 C33.1599833,50.275775 31.9547034,49.201775 31.8159834,49.070255 L31.8013434,49.055615 L30.9392634,48.361775 L26.5633435,46.2065751 C26.5633435,46.2065751 24.9195835,45.3154551 23.6413435,47.2805751 C22.3628636,49.245695 16.2774237,54.9072949 16.2774237,54.9072949 C16.2774237,54.9072949 15.5396637,55.5576949 15.5396637,56.5145749 L14.1954237,56.5949749 C14.1661437,56.0614549 14.1443037,55.7619349 14.1443037,55.7619349 C14.1443037,55.7619349 13.9616637,54.7611349 15.8756637,53.3878549 C17.7971036,52.014335 23.0055835,44.9866551 23.0055835,44.9866551 C23.0055835,44.9866551 23.8237435,43.3428951 26.0154235,43.9784151 C26.8043035,44.2124151 27.8929434,44.4680151 28.9669434,44.7017751 C30.8953434,45.1253751 32.7731033,45.4760151 32.7731033,45.4760151 L35.5563833,47.0468151 L35.5635833,47.0468151 L38.4930232,48.697775 Z" id="Fill-30" fill="#F57788"></path>
                            <path d="M36.8347193,46.7765031 C36.5279993,46.9445031 36.1187993,47.0467431 35.5636793,47.0467431 L35.5562393,47.0467431 L32.7729593,45.4761831 C32.7729593,45.4761831 30.8954394,45.1255431 28.9667994,44.7017031 L37.6600793,44.7017031 C37.6600793,44.7017031 37.9963192,46.1628231 36.8347193,46.7765031" id="Fill-32" fill="#F57788"></path>
                            <path d="M33.5034233,50.955167 L35.8191833,54.9072469 C35.8191833,54.9072469 35.0231033,56.7994069 33.3793433,56.2514869 C32.5537434,55.9738069 31.8231834,54.9218869 31.2973434,53.9429269 C30.7784634,52.9642069 30.4571034,52.058207 30.4571034,52.058207 L26.9286235,50.955167 L22.9691035,54.3593269 L22.2385436,54.9072469 L17.7971036,56.7336469 C17.7971036,56.7336469 17.1030237,56.9820469 16.7523837,57.5225269 L15.5468637,56.6311669 C15.5468637,56.5874869 15.5396637,56.5510069 15.5396637,56.5145269 C15.5396637,55.5576469 16.2774237,54.9072469 16.2774237,54.9072469 C16.2774237,54.9072469 22.3628636,49.245647 23.6413435,47.2805271 C24.9195835,45.3154071 26.5633435,46.2065271 26.5633435,46.2065271 L30.9392634,48.361727 L31.8013434,49.055567 L31.8159834,49.070207 L33.5034233,50.955167 Z" id="Fill-34" fill="#F57788"></path>
                            <g id="Group-38" transform="translate(0.000000, 53.140079)">
                                <mask id="mask-4" fill="white">
                                    <use xlink:href="#path-3"></use>
                                </mask>
                                <g id="Clip-37"></g>
                                <path d="M28.6088394,5.2152479 L27.0529195,4.26556792 L24.3718795,5.60236789 C24.3718795,5.60236789 25.3798795,6.20140788 26.5489195,7.08556786 L26.5633195,7.06348786 L28.6088394,5.2152479 Z M32.2102794,8.81692782 C31.2752394,10.4825278 30.4352394,12.3672478 30.2161194,14.4931677 C29.9165994,17.3789277 28.3604394,19.5046076 26.8556395,21.3895676 C26.8484395,21.3895676 26.8409995,21.3967676 26.8337995,21.4039676 C26.2198795,22.1710076 25.6136395,22.9015675 25.1024395,23.6249275 C23.3343595,26.1233275 21.9975596,28.0666074 21.1429196,32.9976473 C21.1429196,32.9976473 18.7611596,41.5812472 17.7457196,48.134207 C17.7457196,48.134207 26.6583595,49.398047 30.8223594,55.6150069 C31.3409994,58.2739668 31.7720394,60.9552468 32.0425194,63.4975667 L32.0425194,63.5194067 L0.0814799984,63.5194067 C0.0814799984,63.5194067 -1.01435998,57.0468469 4.8298799,44.9928471 C10.6741198,32.9393273 15.0574797,23.6249275 14.8748397,17.5980477 C14.7286797,12.6814077 14.3341197,5.81428788 14.1953997,3.45484793 L15.5396397,3.37444793 C15.5396397,3.41092793 15.5468397,3.44740793 15.5468397,3.49108793 L16.7523597,4.38244791 C17.1029997,3.84196792 17.7970796,3.59356793 17.7970796,3.59356793 L22.2387596,1.76716796 L22.9690795,1.21924798 L26.8042795,0.123647998 C26.8042795,0.123647998 28.3311594,-0.0592319988 29.8508394,1.46764797 C30.1064394,1.72348797 30.3548394,1.99372796 30.5739594,2.25676796 C31.6916394,3.53500793 32.4077994,4.75516791 32.4077994,4.75516791 L32.3564394,8.56852783 C32.3053194,8.64892783 32.2616394,8.73652783 32.2102794,8.81692782 L32.2102794,8.81692782 Z" id="Fill-36" fill="#F57788" mask="url(#mask-4)"></path>
                            </g>
                            <path d="M79.7108144,42.0417592 C79.7026544,42.0417592 79.6947344,42.0415192 79.6872944,42.0412792 C79.4986544,42.0283192 79.3556144,41.8651192 79.3683344,41.6764792 C79.6565744,37.3727993 81.8208944,34.6571993 81.9125744,34.5434393 C82.0308944,34.3967993 82.2471344,34.3742393 82.3942544,34.4927993 C82.5408944,34.6120793 82.5644144,34.8273593 82.4451344,34.9747193 C82.4237744,35.0006393 80.3249744,37.6454393 80.0520944,41.7218392 C80.0400944,41.9030392 79.8893744,42.0417592 79.7108144,42.0417592" id="Fill-39" fill="#3F0030"></path>
                            <path d="M63.0514307,50.771879 C60.3183108,50.771879 57.6180709,50.586359 55.0215109,50.220359 C55.0035109,50.221559 54.9432709,50.214839 54.8811109,50.204519 C54.6943909,50.173319 54.5679109,49.997159 54.5993509,49.810439 C54.6307909,49.623479 54.8093509,49.495799 54.9934309,49.528679 C55.0188709,49.533239 55.0435909,49.538519 55.0690309,49.538519 C57.7332709,49.910519 60.4253508,50.084759 63.2134307,50.086439 L63.2139107,50.086439 C63.4027907,50.086439 63.5559107,50.239319 63.5566319,50.427959 C63.5571107,50.617319 63.4039907,50.770919 63.2146307,50.771639 C63.1606307,50.771639 63.1056707,50.771879 63.0514307,50.771879" id="Fill-41" fill="#3F0030"></path>
                            <path d="M59.1307908,42.8453271 C59.0933508,42.8453271 59.0551908,42.8393271 59.0177508,42.8261271 C58.6431108,42.6953272 58.2343908,42.6785272 57.8007109,42.6602872 C57.5758309,42.6509272 57.3504709,42.6415672 57.1282309,42.6168472 C56.1735109,42.5004472 55.4911909,42.0571672 55.2509509,41.4002872 C54.9759109,40.6454872 55.3632709,39.8902072 55.6745509,39.2832472 C57.0682309,36.6178073 57.8782309,33.6454073 58.0289508,30.6653274 C58.0375908,30.4769274 58.1787108,30.3238074 58.3882308,30.3403674 C58.5768708,30.3502074 58.7227908,30.5110074 58.7127108,30.7001274 C58.5574308,33.7781273 57.7210309,36.8484473 56.2932709,39.5786872 C56.0076709,40.1347672 55.7220709,40.6920472 55.8946309,41.1655672 C56.1113509,41.7586072 56.9544709,41.9052472 57.2071909,41.9364472 C57.4107109,41.9590072 57.6202309,41.9671672 57.8295109,41.9758072 C58.2931908,41.9952472 58.7729508,42.0151672 59.2438308,42.1793272 C59.4223908,42.2414872 59.5167108,42.4368472 59.4540708,42.6154072 C59.4051108,42.7570072 59.2726308,42.8453271 59.1307908,42.8453271" id="Fill-43" fill="#3F0030"></path>
                            <path d="M56.3254549,27.1316635 C56.2565749,27.1316635 56.1869749,27.1110235 56.1267349,27.0680635 C54.0533749,25.5896635 51.110255,25.3232635 48.800015,26.4051835 C48.629375,26.4851035 48.424655,26.4116635 48.344495,26.2403035 C48.264095,26.0689435 48.338495,25.8651835 48.509615,25.7850235 C51.074255,24.5833435 54.2220949,24.8675035 56.5241749,26.5103035 C56.6787349,26.6202235 56.7142549,26.8340635 56.6045749,26.9881435 C56.5376149,27.0817435 56.4317749,27.1316635 56.3254549,27.1316635" id="Fill-45" fill="#3F0030"></path>
                            <path d="M73.4270865,28.5487914 C73.3634865,28.5487914 73.2991665,28.5312714 73.2418065,28.4945514 C70.5876466,26.7898315 67.0966067,26.3914315 64.1340467,27.4548715 C63.9552467,27.5196715 63.7598867,27.4258315 63.6958067,27.2482315 C63.6322067,27.0701515 63.7246067,26.8738315 63.9024467,26.8097515 C67.0622867,25.6769515 70.7822866,26.1012715 73.6123665,27.9178314 C73.7717265,28.0200714 73.8178065,28.2319914 73.7153265,28.3911114 C73.6498065,28.4933514 73.5394065,28.5487914 73.4270865,28.5487914" id="Fill-47" fill="#3F0030"></path>
                            <path d="M25.5257515,73.2137745 C25.4890315,73.2137745 25.4513515,73.2080145 25.4141515,73.1950545 C25.2353515,73.1336145 25.1405515,72.9387346 25.2019915,72.7596946 C25.2087115,72.7392946 25.9078315,70.5312946 23.8959115,67.2041747 C21.9999116,64.0611347 23.4403915,60.0536148 23.9266315,58.9001748 C24.0010315,58.7252148 24.2038315,58.6452948 24.3756715,58.7180148 C24.5503915,58.7909748 24.6319915,58.9920948 24.5583115,59.1665748 C24.1032715,60.2446548 22.7539915,63.9845747 24.4819915,66.8496947 C26.6731915,70.4736946 25.8843115,72.8818546 25.8497515,72.9826545 C25.8007915,73.1249745 25.6683115,73.2137745 25.5257515,73.2137745" id="Fill-51" fill="#3F0030"></path>
                            <path d="M32.3467674,62.3139108 C32.3333274,62.3139108 32.2644474,62.3129508 32.1547674,62.2949508 C31.7299674,62.2611108 29.4643674,61.9956708 29.3266074,60.4159908 L29.2176474,59.1274308 L28.6910874,58.8070308 C28.5290874,58.7081508 28.4782074,58.4974308 28.5766074,58.3359108 C28.6742874,58.1741508 28.8864474,58.1239908 29.0470074,58.2214308 L29.7218874,58.6325508 C29.8157274,58.6894308 29.8759674,58.7875908 29.8853274,58.8965508 L30.0091674,60.3574308 C30.0859674,61.2403908 31.4501274,61.5149508 32.0155674,61.5910308 L32.0638074,57.9886308 C31.8864474,57.7001509 31.2367674,56.6755909 30.3161274,55.6222309 C30.1910874,55.4796709 30.2057274,55.2631909 30.3482874,55.1388709 C30.4894074,55.0150309 30.7063674,55.0279909 30.8314074,55.1712709 C31.9579674,56.4591109 32.6731674,57.6706309 32.7034074,57.7219909 C32.7348473,57.7759909 32.7509273,57.8374309 32.7502305,57.8998308 L32.6918874,61.9810308 C32.6866074,62.1641508 32.5327674,62.3110308 32.3494074,62.3139108 L32.3467674,62.3139108 Z" id="Fill-53" fill="#3F0030"></path>
                            <path d="M33.9604553,56.6933749 C33.7444553,56.6933749 33.5142953,56.6576149 33.2706953,56.5762549 C32.5341354,56.3285749 31.7980554,55.5509749 31.0828554,54.2650549 C30.9904554,54.0994549 31.0502154,53.8911349 31.2153354,53.7989749 C31.3792554,53.7070549 31.5894954,53.7663349 31.6809354,53.9319349 C32.3018154,55.0481749 32.9267753,55.7379349 33.4881353,55.9265749 C34.5854153,56.2920949 35.2257353,55.3114549 35.4316553,54.9233749 L33.2078153,51.128495 L31.5611754,49.298495 C31.4375754,49.160735 31.4387754,48.943295 31.5719754,48.815615 C31.7056554,48.687455 31.9084554,48.681455 32.0409354,48.811055 L32.0555754,48.825215 L33.7583753,50.726735 L36.1149353,54.7340149 C36.1691753,54.8273749 36.1763753,54.9406549 36.1348553,55.0400149 C35.8672553,55.6760149 35.1105353,56.6933749 33.9604553,56.6933749" id="Fill-55" fill="#3F0030"></path>
                            <path d="M37.2053753,51.485783 C36.8962553,51.485783 36.5484953,51.439223 36.1630553,51.346343 C32.9796953,50.585063 31.7139354,49.445783 31.5800154,49.318343 C31.4429754,49.188023 31.4374554,48.971063 31.5680154,48.834023 C31.6990554,48.697463 31.9157754,48.692183 32.0523354,48.822023 C32.1728154,48.936263 33.3135353,49.960343 36.3228953,50.680343 C36.9524153,50.832503 37.7705752,50.913623 38.1053752,50.448023 C38.4130552,50.029223 38.3033752,49.296023 38.2049752,48.928583 L35.3955353,47.3450631 C35.2304153,47.2519431 35.1720953,47.0433831 35.2652153,46.8782631 C35.3580953,46.7124231 35.5688153,46.6553031 35.7315353,46.7481831 L38.6612152,48.399383 C38.7353752,48.440903 38.7910552,48.508103 38.8176952,48.588503 C38.8371352,48.645623 39.2835352,50.001143 38.6600152,50.850743 C38.3554552,51.273383 37.8684952,51.485783 37.2053753,51.485783" id="Fill-57" fill="#3F0030"></path>
                            <path d="M35.5561913,47.3891511 C35.4985913,47.3891511 35.4412313,47.3752311 35.3874713,47.3449911 L32.6538714,45.8022711 C32.3260314,45.7403511 30.6205914,45.4158711 28.8930714,45.0361911 C28.7085114,44.9956311 28.5913914,44.8129911 28.6321914,44.6279511 C28.6722714,44.4441111 28.8537114,44.3284311 29.0404314,44.3670711 C30.9412314,44.7849111 32.8170713,45.1357911 32.8357913,45.1391511 C32.8725113,45.1461111 32.9087513,45.1593111 32.9413913,45.1775511 L35.7249113,46.7483511 C35.8893113,46.8412311 35.9476313,47.0502711 35.8545113,47.2149111 C35.7916313,47.3265111 35.6752313,47.3891511 35.5561913,47.3891511" id="Fill-59" fill="#3F0030"></path>
                            <path d="M30.8219274,109.097758 C30.6620874,109.097758 30.5180874,108.984238 30.4868874,108.821038 C29.8806474,105.728638 29.1004074,102.353518 28.1677674,98.789758 C26.7769675,93.4706381 25.5198475,89.5691982 25.5068875,89.5303182 C25.4488075,89.3503182 25.5472075,89.1573582 25.7276875,89.0990382 C25.9084075,89.0402382 26.1004075,89.1400782 26.1587275,89.3195982 C26.1714475,89.3584782 27.4345675,93.2769581 28.8301674,98.616238 C29.7668874,102.193918 30.5497674,105.582958 31.1584074,108.689278 C31.1953674,108.874798 31.0741674,109.054798 30.8881674,109.091278 C30.8660874,109.095598 30.8440074,109.097758 30.8219274,109.097758" id="Fill-65" fill="#3F0030"></path>
                            <path d="M29.3026074,63.1686947 C29.1982074,63.1686947 29.0952474,63.1209347 29.0275674,63.0306947 C28.2936474,62.0440548 27.1630075,61.1102148 26.3441275,60.5003748 C26.1922075,60.3875748 26.1607675,60.1727748 26.2738075,60.0213348 C26.3880475,59.8694148 26.6023675,59.8384548 26.7535675,59.9510148 C27.6091675,60.5879748 28.7940474,61.5683748 29.5776474,62.6219748 C29.6906874,62.7734148 29.6585274,62.9879747 29.5073274,63.1012547 C29.4458874,63.1466147 29.3741274,63.1686947 29.3026074,63.1686947" id="Fill-69" fill="#3F0030"></path>
                            <path d="M15.5468877,56.9739109 C15.3575277,56.9739109 15.2044077,56.8207909 15.2044077,56.6314309 C15.1988877,56.5707109 15.1969677,56.5428709 15.1969677,56.5143109 C15.1969677,55.4155909 16.0158477,54.6811909 16.0506477,54.6504709 C16.1048877,54.6000709 22.1128076,49.001351 23.3540875,47.0938311 C24.7897675,44.8879911 26.7066475,45.8947911 26.7268075,45.9055911 L31.0902474,48.054071 C31.2601674,48.137831 31.3297674,48.343271 31.2462474,48.512951 C31.1624874,48.683111 30.9592074,48.753191 30.7878474,48.668951 L26.4121675,46.5139911 C26.3461675,46.4787111 25.0105675,45.8033511 23.9281675,47.4672711 C22.6415276,49.445111 16.7605677,54.9257509 16.5109677,55.1583109 C16.4989677,55.1688709 15.8819277,55.7304709 15.8819277,56.5143109 C15.8867277,56.5651909 15.8893677,56.5971109 15.8893677,56.6314309 C15.8893677,56.8207909 15.7362477,56.9739109 15.5468877,56.9739109" id="Fill-71" fill="#3F0030"></path>
                            <path d="M16.5766317,58.6982148 C16.4112717,58.6982148 16.2655917,58.5777348 16.2387117,58.4085348 C16.1791917,58.0281348 16.2574317,57.6573349 16.4647917,57.3366949 C16.8737517,56.7057349 17.6484716,56.4227749 17.6813516,56.4110149 L22.1081516,54.5906149 C22.2843116,54.5198149 22.4835116,54.6018949 22.5559916,54.7773349 C22.6275116,54.9520549 22.5437516,55.1522149 22.3692716,55.2239749 L17.9273516,57.0503749 C17.9071916,57.0575749 17.3213517,57.2752549 17.0403117,57.7089349 C16.9224717,57.8910948 16.8816717,58.0847748 16.9157517,58.3029348 C16.9452717,58.4894148 16.8173517,58.6646148 16.6301517,58.6941348 C16.6119117,58.6967748 16.5946317,58.6982148 16.5766317,58.6982148" id="Fill-73" fill="#3F0030"></path>
                            <path d="M43.7520471,49.092599 L46.6757271,49.282439 L46.6757271,48.416999 L43.7520471,48.268919 L43.7520471,49.092599 Z M47.0182071,49.990199 C47.0110071,49.990199 47.0035671,49.989719 46.9963671,49.989479 L43.3872471,49.755719 C43.2072471,49.743959 43.0670871,49.594439 43.0670871,49.413719 L43.0670871,47.908679 C43.0670871,47.8145991 43.1057271,47.7250791 43.1731671,47.6605191 C43.2415671,47.5952391 43.3320471,47.5577991 43.4268471,47.5664391 L47.0357271,47.7490791 C47.2176471,47.7584391 47.3609271,47.908919 47.3609271,48.091319 L47.3609271,49.647719 C47.3609271,49.742279 47.3215671,49.832759 47.2524471,49.897559 C47.1888471,49.957319 47.1053271,49.990199 47.0182071,49.990199 L47.0182071,49.990199 Z" id="Fill-75" fill="#0062FF"></path>
                            <path d="M62.8286628,74.9748465 C56.5550629,74.9748465 52.390103,73.0298865 49.920743,71.2894066 C46.9032231,69.1627666 45.7123431,66.9216467 45.6629031,66.8275667 C45.5750631,66.6598067 45.6401031,66.4529267 45.8081031,66.3655667 C45.9739431,66.2782067 46.1820231,66.3422867 46.2703431,66.5098067 C46.3159431,66.5976467 51.033863,75.2426865 65.1468227,74.2022865 C72.5505826,73.6591665 77.3237025,71.0299666 80.0244224,68.9201266 C82.9509824,66.6341267 84.1445023,64.4470067 84.1567423,64.4251667 C84.2462623,64.2581267 84.4543423,64.1957267 84.6201823,64.2850067 C84.7869823,64.3742867 84.8496223,64.5814067 84.7608223,64.7479667 C84.7106623,64.8413267 83.5049023,67.0615667 80.4782624,69.4349266 C77.6995425,71.6138866 72.7934626,74.3285265 65.1972227,74.8855665 C64.3769027,74.9462865 63.5873027,74.9748465 62.8286628,74.9748465" id="Fill-79" fill="#3F0030"></path>
                        </g>
                    </g>
                </g>
            </g>
        </g>
    </g>
</svg>