<?xml version="1.0" encoding="UTF-8"?>
<svg width="128px" height="155px" viewBox="0 0 128 155" version="1.1" xmlns="http://www.w3.org/2000/svg" xmlns:xlink="http://www.w3.org/1999/xlink">
    <title>timeline</title>
    <g id="Page-1" stroke="none" stroke-width="1" fill="none" fill-rule="evenodd" opacity="1">
        <g id="Etapa-suspeito" transform="translate(-96.000000, -207.000000)" fill="#0261FF" fill-rule="nonzero">
            <g id="timeline" transform="translate(96.000000, 207.000000)">
                <path d="M58.8225521,141.77428 L96.6786366,141.77428 C98.5340815,141.77428 100.038217,140.270145 100.038217,138.4147 C100.038217,136.559255 98.5340815,135.05512 96.6786366,135.05512 L58.8225521,135.05512 C56.9671072,135.05512 55.462972,136.559255 55.462972,138.4147 C55.462972,140.270145 56.9671072,141.77428 58.8225521,141.77428 L58.8225521,141.77428 Z" id="Path"></path>
                <path d="M30.5560529,76.9343843 C30.5477228,69.8916712 25.6783327,63.7872403 18.8136486,62.2137122 L18.8136486,33.4691449 C26.3276312,31.7588681 31.3575104,24.6766692 30.4969901,17.0187004 C29.6364697,9.36073156 23.1602336,3.57146634 15.4540685,3.57146634 C7.74790333,3.57146634 1.2716672,9.36073156 0.41114689,17.0187004 C-0.44937342,24.6766692 4.58050577,31.7588681 12.0944884,33.4691449 L12.0944884,62.2137122 C5.22498346,63.7796327 0.351812752,69.8886619 0.351812752,76.9343843 C0.351812752,83.9801068 5.22498346,90.089136 12.0944884,91.6550565 L12.0944884,120.399624 C4.62090324,122.109207 -0.377053602,129.15856 0.483170094,136.776773 C1.34339379,144.394986 7.78744279,150.152345 15.4540685,150.152345 C23.1206942,150.152345 29.5647432,144.394986 30.4249668,136.776773 C31.2851905,129.15856 26.2872337,122.109207 18.8136486,120.399624 L18.8136486,91.6550565 C25.6783327,90.0815284 30.5477228,83.9770975 30.5560529,76.9343843 L30.5560529,76.9343843 Z M6.97583212,18.7488087 C6.97583212,15.3582116 9.018056,12.3014053 12.1505332,11.0038172 C15.2830105,9.70622915 18.8886941,10.4234067 21.2862083,12.8209208 C23.6837225,15.218435 24.4009,18.8241186 23.1033119,21.9565959 C21.8057238,25.0890731 18.7489175,27.131297 15.3583204,27.131297 C10.7310257,27.1259281 6.98120097,23.3761035 6.97583212,18.7488087 L6.97583212,18.7488087 Z M23.7401368,135.11996 C23.7402727,138.510527 21.6979493,141.567312 18.5655133,142.864919 C15.4330773,144.162527 11.8274201,143.445411 9.42987947,141.047967 C7.03233886,138.650522 6.31507842,135.044894 7.61256066,131.912406 C8.9100429,128.779918 11.9667461,126.737472 15.3573126,126.737472 C19.9850555,126.742285 23.7355897,130.492218 23.7411447,135.11996 L23.7401368,135.11996 Z M15.3583204,85.3172086 C10.7286144,85.3172086 6.97549617,81.5640904 6.97549617,76.9343843 C6.97549617,72.3046783 10.7286144,68.5515601 15.3583204,68.5515601 C19.9880264,68.5515601 23.7411447,72.3046783 23.7411447,76.9343843 C23.7359606,81.5619413 19.9858774,85.3120245 15.3583204,85.3172086 L15.3583204,85.3172086 Z" id="Shape"></path>
                <path d="M48.3779535,41.9947513 L107.170605,41.9947513 C109.02605,41.9947513 110.530185,40.490616 110.530185,38.6351712 L110.530185,3.3595801 C110.530185,1.50413525 109.02605,0 107.170605,0 L48.3779535,0 C46.5225086,0 45.0183734,1.50413525 45.0183734,3.3595801 L45.0183734,38.6351712 C45.0183734,40.490616 46.5225086,41.9947513 48.3779535,41.9947513 L48.3779535,41.9947513 Z M51.7375336,6.71916021 L103.811025,6.71916021 L103.811025,34.9396331 L51.7375336,34.9396331 L51.7375336,6.71916021 Z" id="Shape"></path>
                <path d="M124.640422,56.1049877 L48.3779535,56.1049877 C46.5225086,56.1049877 45.0183734,57.609123 45.0183734,59.4645678 L45.0183734,94.7401589 C45.0183734,96.5956037 46.5225086,98.099739 48.3779535,98.099739 L124.640422,98.099739 C126.495867,98.099739 128.000002,96.5956037 128.000002,94.7401589 L128.000002,59.4645678 C128.000002,57.609123 126.495867,56.1049877 124.640422,56.1049877 L124.640422,56.1049877 Z M121.280842,91.0446208 L51.7375336,91.0446208 L51.7375336,62.8241479 L121.280842,62.8241479 L121.280842,91.0446208 Z" id="Shape"></path>
                <path d="M107.170605,112.209975 L48.3779535,112.209975 C46.5225086,112.209975 45.0183734,113.714111 45.0183734,115.569556 L45.0183734,150.845147 C45.0183734,152.700591 46.5225086,154.204727 48.3779535,154.204727 L107.170605,154.204727 C109.02605,154.204727 110.530185,152.700591 110.530185,150.845147 L110.530185,115.569556 C110.530185,113.714111 109.02605,112.209975 107.170605,112.209975 L107.170605,112.209975 Z M103.811025,147.149608 L51.7375336,147.149608 L51.7375336,118.929136 L103.811025,118.929136 L103.811025,147.149608 Z" id="Shape"></path>
                <path d="M58.8225521,18.8136486 L79.1517072,18.8136486 C81.0071521,18.8136486 82.5112873,17.3095133 82.5112873,15.4540685 C82.5112873,13.5986236 81.0071521,12.0944884 79.1517072,12.0944884 L58.8225521,12.0944884 C56.9671072,12.0944884 55.462972,13.5986236 55.462972,15.4540685 C55.462972,17.3095133 56.9671072,18.8136486 58.8225521,18.8136486 L58.8225521,18.8136486 Z" id="Path"></path>
                <path d="M96.6786366,22.8451447 L58.8225521,22.8451447 C56.9671072,22.8451447 55.462972,24.3492799 55.462972,26.2047248 C55.462972,28.0601697 56.9671072,29.5643049 58.8225521,29.5643049 L96.6786366,29.5643049 C98.5340815,29.5643049 100.038217,28.0601697 100.038217,26.2047248 C100.038217,24.3492799 98.5340815,22.8451447 96.6786366,22.8451447 Z" id="Path"></path>
                <path d="M58.8225521,74.9186363 L79.1517072,74.9186363 C81.0071521,74.9186363 82.5112873,73.414501 82.5112873,71.5590562 C82.5112873,69.7036113 81.0071521,68.1994761 79.1517072,68.1994761 L58.8225521,68.1994761 C56.9671072,68.1994761 55.462972,69.7036113 55.462972,71.5590562 C55.462972,73.414501 56.9671072,74.9186363 58.8225521,74.9186363 L58.8225521,74.9186363 Z" id="Path"></path>
                <path d="M58.8225521,85.6692926 L96.6786366,85.6692926 C98.5340815,85.6692926 100.038217,84.1651574 100.038217,82.3097125 C100.038217,80.4542677 98.5340815,78.9501324 96.6786366,78.9501324 L58.8225521,78.9501324 C56.9671072,78.9501324 55.462972,80.4542677 55.462972,82.3097125 C55.462972,84.1651574 56.9671072,85.6692926 58.8225521,85.6692926 Z" id="Path"></path>
                <path d="M58.8225521,131.023624 L79.1517072,131.023624 C81.0071521,131.023624 82.5112873,129.519489 82.5112873,127.664044 C82.5112873,125.808599 81.0071521,124.304464 79.1517072,124.304464 L58.8225521,124.304464 C56.9671072,124.304464 55.462972,125.808599 55.462972,127.664044 C55.462972,129.519489 56.9671072,131.023624 58.8225521,131.023624 L58.8225521,131.023624 Z" id="Path"></path>
            </g>
        </g>
    </g>
</svg>
