<?xml version="1.0" encoding="UTF-8"?>
<svg width="118px" height="149px" viewBox="0 0 116 129" version="1.1" xmlns="http://www.w3.org/2000/svg" xmlns:xlink="http://www.w3.org/1999/xlink">
    <title>BE4D6345-093F-4D4D-8E69-24370B12A268</title>
    <g id="Page-1" stroke="none" stroke-width="1" fill="none" fill-rule="evenodd">
        <g id="App-Início" transform="translate(-18.000000, -262.000000)">
            <g id="conteudo" transform="translate(18.000000, 131.000000)">
                <g id="unidades-de-saúde" transform="translate(0.000000, 121.000000)">
                    <g id="Asset-1">
                        <g id="unidades-de-saude" transform="translate(24.500000, 129.500000) scale(-1, 1) translate(-24.500000, -129.500000) translate(-104.000000, 10.000000)">
                            <g id="Group-328">
                                <path d="M86.5052354,20.6766128 C86.5052354,28.385413 80.2563552,34.6342933 72.5475549,34.6342933 C64.8387546,34.6342933 58.5898744,28.385413 58.5898744,20.6766128 C58.5898744,12.9678125 64.8387546,6.71893225 72.5475549,6.71893225 C80.2563552,6.71893225 86.5052354,12.9678125 86.5052354,20.6766128" id="Fill-30" fill="#5C315D"></path>
                                <path d="M76.593883,44.4437416 C69.3167228,42.8267416 61.8897425,42.6723016 54.3248222,43.3633216 C51.7600621,43.5982816 49.545762,45.4693817 48.925362,47.9879418 C47.200122,54.991862 44.2149419,70.7817026 44.6861819,94.8301235 C44.6861819,94.8327635 75.216463,95.3251235 75.216463,95.3251235 C75.840823,91.0311633 75.347143,71.1407426 80.5208832,51.0655219 C81.2996832,48.0427218 79.5592631,45.1030816 76.593883,44.4437416" id="Fill-38" fill="#9ABADC"></path>
                                <path d="M58.2145324,48.7433778 L59.0137924,51.0236779 C59.0943124,51.2520379 59.2916524,51.4157179 59.5318924,51.4520179 L60.6921725,51.6302179 C60.8994125,51.6625579 61.1139125,51.6203179 61.2980525,51.5120779 L63.5090526,50.2118778 L61.2577925,48.1454178 L58.2145324,48.7433778 Z" id="Fill-40" fill="#9ABADC"></path>
                                <path d="M60.8178365,50.9380099 C59.9862364,50.6416699 59.4674764,50.7598099 59.4674764,50.7598099 C58.1032564,53.1028099 55.8810363,59.9542702 55.2553563,63.0087503 C57.1139163,69.2668705 57.9540964,69.9493106 57.9540964,69.9493106 L60.6607565,62.7718103 C60.6607565,62.7718103 60.2845564,55.20887 60.8178365,50.9380099" id="Fill-42" fill="#9ABADC"></path>
                                <path d="M72.1074669,29.1915371 C70.8726068,33.2993772 69.2905868,40.8761775 71.9220069,43.8745576 C69.4338068,45.9575177 66.2169667,48.3394578 61.2590465,48.1447578 C56.3017863,47.9507178 57.5069463,44.6104576 58.9926064,42.9109576 C63.7426266,42.1466775 63.9703266,38.6895974 63.4872066,35.3902573 L72.1074669,29.1915371 Z" id="Fill-44" fill="#AD6764"></path>
                                <path d="M73.2270249,43.6329316 C72.8633649,43.4190916 72.4607649,43.2626716 72.1888449,43.1702716 C72.0080049,43.1062516 71.8047249,43.1630116 71.6885649,43.3194316 C71.1057848,44.0810716 69.1904648,47.5407917 61.2579245,48.1453518 C62.4327245,49.0284318 63.8226846,51.5476519 64.4081046,52.7442319 C66.8910247,51.7687519 73.4118249,48.7578318 73.4448249,44.0170516 C73.4402049,43.8606316 73.3643049,43.7108116 73.2270249,43.6329316" id="Fill-46" fill="#FFFFFF"></path>
                                <path d="M59.0104924,43.1063176 C59.1160924,42.7928176 58.8798124,42.4872376 58.5570724,42.5149576 C58.2277324,42.5433376 57.8957524,42.6152776 57.7366923,42.6509176 C57.6720123,42.6647776 57.6205323,42.6931576 57.5611323,42.7287976 C56.8965123,43.2198376 53.0460722,47.5791377 55.5811323,51.6797179 C56.3896323,50.7187579 58.8633124,48.5948778 61.2577925,48.1454178 C59.2065124,46.9356377 58.3702924,44.9919376 59.0104924,43.1063176" id="Fill-48" fill="#FFFFFF"></path>
                                <path d="M68.5929667,31.7213172 L63.4911666,35.3869573 C63.6086466,36.1677373 63.6812466,36.9564374 63.6588066,37.7160974 C65.4573066,37.5920174 68.0874067,35.8238773 68.4622867,33.9785172 C68.6497267,33.0578172 68.7005468,32.1641772 68.5929667,31.7213172" id="Fill-50" fill="#8F3131"></path>
                                <path d="M76.145743,23.9669769 C74.3254583,29.4363971 73.5328029,32.7152772 70.0110428,34.9632373 C64.7145426,38.3444174 58.6504624,34.3481173 58.8293224,28.534837 C58.9903624,23.3016969 61.9399025,15.2358366 67.8785827,14.1870965 C73.7294829,13.1528765 77.9660231,18.4975567 76.145743,23.9669769" id="Fill-52" fill="#AD6764"></path>
                                <path d="M74.0511009,27.814183 L70.7946608,26.501443 C70.7946608,26.501443 74.690641,22.2299228 74.915701,19.6420627 C68.8773608,18.7141027 60.4663204,18.8962627 63.9544206,13.2618425 C66.3053407,9.46354235 69.0595208,9.46882235 74.165941,11.2085824 C82.5294613,14.0571425 81.4233012,21.3633428 79.5383411,25.5259629 C77.6533811,29.6892431 74.0511009,27.814183 74.0511009,27.814183" id="Fill-54" fill="#5C315D"></path>
                                <path d="M75.558013,27.790357 C75.516433,27.790357 75.474193,27.775177 75.441193,27.743497 C73.0935729,25.4928969 70.1941928,24.5259969 70.1651528,24.5160969 C70.0760528,24.4870569 70.0278728,24.3920169 70.0569128,24.3035769 C70.0866128,24.2138169 70.1809928,24.1662969 70.2700928,24.1953369 C70.2997928,24.2045769 73.2697929,25.1932569 75.674833,27.499957 C75.742153,27.563977 75.744133,27.670897 75.680113,27.738217 C75.646453,27.773197 75.602233,27.790357 75.558013,27.790357" id="Fill-56" fill="#FFFFFF"></path>
                                <path d="M63.6491046,29.3674931 C65.3400246,29.8189331 66.6059047,29.0084531 66.6639847,28.9695131 C66.7286647,28.9279331 66.7484647,28.8441131 66.7095247,28.7827331 C66.6705847,28.7213531 66.5874247,28.705513 66.5234047,28.7477531 C66.5082247,28.7569931 65.0337846,29.6955131 63.2062445,28.9259531 C63.1382645,28.8975731 63.0570845,28.9299131 63.0247445,28.9985531 C62.9924045,29.0678531 63.0207845,29.1463931 63.0887645,29.1747731 C63.2795046,29.2552931 63.4669446,29.3193131 63.6491046,29.3674931" id="Fill-58" fill="#5C315D"></path>
                                <path d="M76.456603,30.4000631 C75.360343,31.5266832 73.8720429,32.0705232 72.6134229,32.1055032 C70.7205428,32.1569832 70.3311428,30.3578231 71.3244428,28.8154031 C72.2187429,27.426103 74.281243,25.7266029 75.956983,26.409703 C77.6076431,27.083563 77.7099431,29.1130631 76.456603,30.4000631" id="Fill-60" fill="#AD6764"></path>
                                <path d="M60.9323465,151.543596 C61.5897065,122.810494 68.8015268,95.2165535 68.8015268,95.2165535 L44.9867459,94.8324335 C44.9867459,94.8324335 46.4446859,136.331255 46.859826,153.713016 C47.290146,171.786456 77.1604271,212.825258 77.1604271,212.825258 L85.3358474,207.413918 C85.3358474,207.413918 61.5692465,174.217896 60.9323465,151.543596" id="Fill-62" fill="#007CFF"></path>
                                <path d="M63.1292885,111.026392 C56.0514483,120.322492 58.5647284,137.811173 60.9658085,150.168353 C61.4337485,134.807513 63.7094286,119.895472 65.6894286,109.488592 L63.1292885,111.026392 Z" id="Fill-64" fill="#000000"></path>
                                <path d="M67.7131867,23.4552129 C67.5924067,23.9066529 67.2584467,24.2208129 66.9673867,24.1581129 C66.6769867,24.0954129 66.5390467,23.6789529 66.6598267,23.2268528 C66.7812667,22.7760728 67.1145667,22.4612528 67.4056267,22.5239528 C67.6960267,22.5873128 67.8339667,23.0031128 67.7131867,23.4552129" id="Fill-68" fill="#5C315D"></path>
                                <path d="M62.5572005,22.4961668 C62.4364205,22.9476068 62.1024605,23.2624269 61.8120605,23.1990668 C61.5210005,23.1370268 61.3830605,22.7199068 61.5045005,22.2684668 C61.6252805,21.8176868 61.9585805,21.5022068 62.2496405,21.5655668 C62.5407005,21.6282668 62.6779805,22.0447268 62.5572005,22.4961668" id="Fill-70" fill="#5C315D"></path>
                                <path d="M63.9682146,23.0266088 C63.9682146,23.0266088 62.2502345,25.0910889 60.7962545,25.976149 C61.3796945,26.758249 62.8092545,26.702809 62.8092545,26.702809 L63.9682146,23.0266088 Z" id="Fill-72" fill="#8F3131"></path>
                                <path d="M69.8231408,22.2093308 C69.8680208,22.2132908 69.9148808,22.2053708 69.9591008,22.1849108 C70.0983608,22.1215508 70.1656808,21.9598508 70.1095808,21.8245508 C69.5512208,20.4662707 68.3275807,20.2781707 68.2761007,20.2702507 C68.1289207,20.2497907 67.9863607,20.3527507 67.9579807,20.5012507 C67.9289407,20.6490908 68.0233207,20.7857108 68.1691807,20.8074908 C68.2094407,20.8134308 69.1611608,20.9705108 69.6073208,22.0542308 C69.6449408,22.1459708 69.7294208,22.2020708 69.8231408,22.2093308" id="Fill-74" fill="#5C315D"></path>
                                <path d="M60.5889485,19.8935227 C60.6701285,19.9238827 60.7671485,19.9133227 60.8463485,19.8578827 C61.8541685,19.1556427 62.7629885,19.4750827 62.8012685,19.4896027 C62.9398685,19.5404227 63.1002485,19.4684827 63.1596485,19.3298827 C63.2190485,19.1919427 63.1570085,19.0381627 63.0190685,18.9860227 C62.9682485,18.9688627 61.8092885,18.5451427 60.5467085,19.4255827 C60.4206484,19.5133627 60.3850084,19.6816627 60.4681684,19.8004627 C60.4985285,19.8453427 60.5414285,19.8763627 60.5889485,19.8935227" id="Fill-76" fill="#5C315D"></path>
                                <path d="M77.2732871,151.144626 C76.9413071,125.379545 78.6130871,105.332044 75.216727,95.3251235 L55.0418463,94.9997435 C55.0418463,94.9997435 62.1322265,135.134345 64.1300466,152.385426 C66.2050867,170.321586 69.6192668,212.523308 69.6192668,212.523308 L78.8229671,212.653988 C78.8229671,212.653988 81.0603672,171.251526 77.2732871,151.144626" id="Fill-88" fill="#007CFF"></path>
                                <path d="M72.3488949,43.6619056 C69.0145748,47.8311257 60.2550544,53.553986 57.9437344,63.5727863 C55.4179143,53.607446 58.8254944,42.9108256 58.8254944,42.9108256 C56.9623143,42.7728856 53.1026342,42.6032656 50.3906941,43.3583056 C48.635754,43.8467056 47.280114,45.3264257 46.912494,47.1005057 C45.8419739,52.2584059 43.6837738,64.5779664 43.6441738,80.1816869 C43.5907138,101.140648 41.8727338,133.567109 41.8727338,133.567109 C41.8727338,133.567109 63.0963545,134.813189 79.8313152,133.009409 C79.9078752,116.993848 76.572235,89.7978873 77.4381551,82.691007 C78.5522351,73.5473667 81.0952152,55.706246 82.3564752,48.2799258 C82.7300353,46.0821257 81.4918752,44.0473456 79.4221151,43.3952656 C77.3470751,42.7412056 74.743375,42.9075256 73.4867349,43.0454656 C73.0392549,43.0949656 72.6300549,43.3101256 72.3488949,43.6619056" id="Fill-96" fill="#007CFF"></path>
                                <path d="M72.3455949,43.6657996 C69.0092948,47.8350197 60.2543944,53.55722 57.9437344,63.5727203 C55.4179143,53.60738 58.8254944,42.9107596 58.8254944,42.9107596 C56.9623143,42.7728196 53.1026342,42.6038596 50.3906941,43.3582396 C48.635754,43.8466396 47.280114,45.3270197 46.912494,47.1004397 C45.8419739,52.2589999 43.6837738,64.5785604 43.6441738,80.1816209 C43.5907138,101.140582 41.8727338,133.567043 41.8727338,133.567043 C41.8727338,133.567043 63.0963545,134.813783 79.8313152,133.009343 C79.9078752,116.994442 76.572235,89.7978213 77.4381551,82.690941 C78.5522351,73.5453207 81.0958752,55.69826 82.3577952,48.2752398 C82.7174953,46.1553197 81.6027552,44.1159196 79.6168151,43.4585596 C77.4922751,42.7543396 74.786935,42.9133996 73.4939949,43.0486996 C73.0425549,43.0962196 72.6287349,43.3120396 72.3455949,43.6657996" id="Fill-98" fill="#FFFFFF"></path>
                                <path d="M56.8640403,131.598527 C55.8608403,111.213766 57.3669603,68.5586245 57.6111603,64.7477844 L57.9662404,64.7708844 C57.7220403,68.5797445 56.2172403,111.209146 57.2197803,131.580707 L56.8640403,131.598527 Z" id="Fill-100" fill="#6F4871" opacity="0.105515253"></path>
                                <path d="M56.2624503,50.4771978 C54.1577102,54.161318 52.1394301,58.0513581 50.3330101,61.9031183 C49.42287,63.8316383 48.56883,65.7746784 47.83689,67.6965985 C47.46861,68.6549185 47.13399,69.6053185 46.85415,70.5161186 C46.5762899,71.4110786 46.3578299,72.3264986 46.2911699,72.8888187 L46.2819299,72.9442587 C46.2852299,72.9145587 46.2971099,72.7488987 46.2938099,72.6564987 C46.2872099,72.4433186 46.2621299,72.2195786 46.2126299,71.9727386 C46.1538899,71.7331586 46.0826099,71.5120586 45.9888899,71.3015186 C45.8806499,71.0784386 45.7922099,70.9180586 45.6806699,70.7596586 C45.2312099,70.1537786 44.9342099,70.0310186 44.8226699,69.9603986 C44.6108099,69.8679986 44.8701899,69.9999986 45.1764299,70.0547786 C45.8258699,70.2006386 46.7736299,70.2996386 47.72865,70.3484786 C49.6703701,70.4461586 51.7770901,70.3992986 53.8811702,70.2870986 C55.9911903,70.1564186 58.1249704,69.9636986 60.2607304,69.7346786 C61.3286105,69.6185185 62.3958305,69.4766185 63.4617306,69.3347185 L65.0582706,69.1116385 L65.8509306,68.9895385 L66.2436307,68.9261785 L66.4376707,68.8944985 L66.5320507,68.8793185 L66.5762707,68.8713985 L66.5967307,68.8674385 C66.6251107,68.8634785 66.5802307,68.8694185 66.4977307,68.8832785 L66.3017107,68.9208985 L68.2196707,77.7213388 L67.9985707,77.7635788 L67.8731707,77.7827188 L67.8434707,77.7860188 L67.7853907,77.7932788 L67.6751707,77.8058188 L67.4600107,77.8302388 L67.0349707,77.8777588 L66.1901707,77.9681789 L64.5091506,78.1496789 L61.1457905,78.4730789 C58.9011304,78.6855989 56.6472303,78.8631389 54.3603302,78.9766589 C52.0694701,79.1000789 49.7687101,79.1918189 47.31087,79.0881989 C46.0687499,79.0261589 44.8154099,78.9410189 43.3092898,78.6301589 C42.5430298,78.4493189 41.7305698,78.2816789 40.5485097,77.6612788 C39.9604497,77.3220388 39.2054097,76.8679588 38.4384896,75.8112988 C38.0721896,75.2964988 37.7250296,74.5889787 37.5738896,73.8504387 C37.4867696,73.4709387 37.4498096,73.1099187 37.4484896,72.7587987 C37.4445296,72.5977587 37.4517896,72.3627986 37.4590496,72.2644586 L37.4735696,72.1146386 C37.6233896,70.4844386 37.9395296,69.2535385 38.2668896,68.0345185 C38.6021696,66.8306784 38.9724297,65.6954784 39.3638097,64.5873384 C40.1544897,62.3776583 41.0012697,60.2570782 41.8704898,58.1582781 C42.7436698,56.0634381 43.6643698,54.006878 44.5916699,51.9575779 C45.5176499,49.8957378 46.4607899,47.8992378 47.45541,45.8142977 L56.2624503,50.4771978 Z" id="Fill-102" fill="#007CFF"></path>
                                <path d="M56.2624503,50.4771978 C54.1577102,54.161318 52.1394301,58.0513581 50.3330101,61.9031183 C49.42287,63.8316383 48.56883,65.7746784 47.83689,67.6965985 C47.46861,68.6549185 47.13399,69.6053185 46.85415,70.5161186 C46.5762899,71.4110786 46.3578299,72.3264986 46.2911699,72.8888187 L46.2819299,72.9442587 C46.2852299,72.9145587 46.2971099,72.7488987 46.2938099,72.6564987 C46.2872099,72.4433186 46.2621299,72.2195786 46.2126299,71.9727386 C46.1538899,71.7331586 46.0826099,71.5120586 45.9888899,71.3015186 C45.8806499,71.0784386 45.7922099,70.9180586 45.6806699,70.7596586 C45.2312099,70.1537786 44.9342099,70.0310186 44.8226699,69.9603986 C44.6108099,69.8679986 44.8701899,69.9999986 45.1764299,70.0547786 C45.8258699,70.2006386 46.7736299,70.2996386 47.72865,70.3484786 C49.6703701,70.4461586 51.7770901,70.3992986 53.8811702,70.2870986 C55.9911903,70.1564186 58.1249704,69.9636986 60.2607304,69.7346786 C61.3286105,69.6185185 62.3958305,69.4766185 63.4617306,69.3347185 L65.0582706,69.1116385 L65.8509306,68.9895385 L66.2436307,68.9261785 L66.4376707,68.8944985 L66.5320507,68.8793185 L66.5762707,68.8713985 L66.5967307,68.8674385 C66.6251107,68.8634785 66.5802307,68.8694185 66.4977307,68.8832785 L66.3017107,68.9208985 L68.2196707,77.7213388 L67.9985707,77.7635788 L67.8731707,77.7827188 L67.8434707,77.7860188 L67.7853907,77.7932788 L67.6751707,77.8058188 L67.4600107,77.8302388 L67.0349707,77.8777588 L66.1901707,77.9681789 L64.5091506,78.1496789 L61.1457905,78.4730789 C58.9011304,78.6855989 56.6472303,78.8631389 54.3603302,78.9766589 C52.0694701,79.1000789 49.7687101,79.1918189 47.31087,79.0881989 C46.0687499,79.0261589 44.8154099,78.9410189 43.3092898,78.6301589 C42.5430298,78.4493189 41.7305698,78.2816789 40.5485097,77.6612788 C39.9604497,77.3220388 39.2054097,76.8679588 38.4384896,75.8112988 C38.0721896,75.2964988 37.7250296,74.5889787 37.5738896,73.8504387 C37.4867696,73.4709387 37.4498096,73.1099187 37.4484896,72.7587987 C37.4445296,72.5977587 37.4517896,72.3627986 37.4590496,72.2644586 L37.4735696,72.1146386 C37.6233896,70.4844386 37.9395296,69.2535385 38.2668896,68.0345185 C38.6021696,66.8306784 38.9724297,65.6954784 39.3638097,64.5873384 C40.1544897,62.3776583 41.0012697,60.2570782 41.8704898,58.1582781 C42.7436698,56.0634381 43.6643698,54.006878 44.5916699,51.9575779 C45.5176499,49.8957378 46.4607899,47.8992378 47.45541,45.8142977 L56.2624503,50.4771978 Z" id="Fill-104" fill="#FFFFFF"></path>
                                <path d="M50.3166421,69.8163206 L46.0081619,65.6946204 L43.0777618,71.8227206 C43.0777618,71.8227206 47.396802,75.1022607 49.345782,73.1605407 L50.3166421,69.8163206 Z" id="Fill-106" fill="#AD6764"></path>
                                <path d="M66.0701167,71.9097746 L70.0169168,67.4442145 L73.4396769,73.3215147 C73.4396769,73.3215147 69.4123568,76.9468948 67.3128967,75.1681947 L66.0701167,71.9097746 Z" id="Fill-108" fill="#AD6764"></path>
                                <path d="M75.944575,66.9095484 L76.793335,69.1977685 C77.1319151,70.1085686 76.762315,71.1757886 75.921475,71.7189686 L73.4398749,73.3214487 L70.0171148,67.4448085 L73.3613349,65.8852284 C74.392255,65.4047484 75.557815,65.8667484 75.944575,66.9095484" id="Fill-110" fill="#AD6764"></path>
                                <path d="M40.0478337,65.6462424 L39.3891537,67.9925425 C39.1271337,68.9264425 39.5838537,69.9580226 40.4682537,70.4305826 L43.0778938,71.8225226 L46.0082939,65.6944224 L42.5419738,64.4166624 C41.4727738,64.0219823 40.3481337,64.5770424 40.0478337,65.6462424" id="Fill-112" fill="#AD6764"></path>
                                <path d="M82.3576632,47.3209457 C82.5952633,48.6000258 82.7787433,49.7451258 82.9701433,50.9529259 C83.1549433,52.1462059 83.3225833,53.340806 83.4717433,54.542006 C83.7826033,56.9424261 84.0353833,59.3626462 84.1614433,61.8449063 C84.2690233,64.3350864 84.3370033,66.8549664 83.9984233,69.6355465 C83.8070233,71.0367266 83.5588633,72.4992867 82.8302233,74.2245267 C82.6513633,74.6502267 82.4137633,75.1089267 82.1372232,75.5676268 C81.9808032,75.8065468 81.8408832,76.0335868 81.6494832,76.2764668 L81.5122032,76.4553268 C81.4554432,76.5246268 81.4462032,76.5450868 81.3313632,76.6737868 C81.1485432,76.8797068 80.9347032,77.1014668 80.7459432,77.2651468 C79.9612032,77.9416469 79.3460831,78.2129069 78.7903631,78.4577669 C78.2273831,78.6933869 77.7799031,78.8135069 77.3271431,78.9323069 C75.614443,79.3230269 74.283223,79.3982669 72.9526629,79.4497469 C71.6379429,79.4900069 70.3846028,79.4649269 69.1490828,79.4134469 C66.6826627,79.3091669 64.2934626,79.0722269 61.9187825,78.8333069 C59.5454224,78.5871269 57.1951623,78.2921069 54.8548022,77.9627669 C52.5005822,77.6538868 50.2018021,77.3021068 47.810622,76.9311868 L49.437522,68.0726665 C51.6102421,68.5221265 53.8918622,68.9016265 56.1259623,69.2666065 C58.3732624,69.6078265 60.6225425,69.9140666 62.8592825,70.1701466 C65.0940426,70.4301866 67.3274827,70.5958466 69.4949228,70.6823066 C70.5760028,70.7199266 71.6425629,70.7311466 72.6451029,70.6915466 C73.6285029,70.6545866 74.623783,70.5555866 75.167623,70.3998266 C75.273223,70.3655066 75.385423,70.3285466 75.354403,70.3318466 C75.328003,70.3470266 75.239563,70.3542866 74.887783,70.6413866 C74.808583,70.7100266 74.687803,70.8195866 74.607283,70.9238666 C74.545243,71.0024066 74.574283,70.9601666 74.563063,70.9733666 L74.556463,70.9786466 C74.548543,70.9964666 74.551843,70.9694066 74.557783,70.9687466 C74.571643,70.9271666 74.606623,70.8717266 74.644903,70.7601866 C74.813863,70.3410866 74.992723,69.4995865 75.075223,68.6026465 C75.247483,66.7698264 75.188743,64.6320864 74.976223,62.5009463 C74.770303,60.3572662 74.454163,58.1713461 74.0627829,55.988726 C73.8595029,54.897746 73.6390629,53.806766 73.4027829,52.7204059 C73.1717829,51.6479059 72.9058029,50.5173258 72.6411429,49.5339258 L82.3576632,47.3209457 Z" id="Fill-114" fill="#007CFF"></path>
                                <path d="M82.3576632,47.3209457 C82.5952633,48.6000258 82.7787433,49.7451258 82.9701433,50.9529259 C83.1549433,52.1462059 83.3225833,53.340806 83.4717433,54.542006 C83.7826033,56.9424261 84.0353833,59.3626462 84.1614433,61.8449063 C84.2690233,64.3350864 84.3370033,66.8549664 83.9984233,69.6355465 C83.8070233,71.0367266 83.5588633,72.4992867 82.8302233,74.2245267 C82.6513633,74.6502267 82.4137633,75.1089267 82.1372232,75.5676268 C81.9808032,75.8065468 81.8408832,76.0335868 81.6494832,76.2764668 L81.5122032,76.4553268 C81.4554432,76.5246268 81.4462032,76.5450868 81.3313632,76.6737868 C81.1485432,76.8797068 80.9347032,77.1014668 80.7459432,77.2651468 C79.9612032,77.9416469 79.3460831,78.2129069 78.7903631,78.4577669 C78.2273831,78.6933869 77.7799031,78.8135069 77.3271431,78.9323069 C75.614443,79.3230269 74.283223,79.3982669 72.9526629,79.4497469 C71.6379429,79.4900069 70.3846028,79.4649269 69.1490828,79.4134469 C66.6826627,79.3091669 64.2934626,79.0722269 61.9187825,78.8333069 C59.5454224,78.5871269 57.1951623,78.2921069 54.8548022,77.9627669 C52.5005822,77.6538868 50.2018021,77.3021068 47.810622,76.9311868 L49.437522,68.0726665 C51.6102421,68.5221265 53.8918622,68.9016265 56.1259623,69.2666065 C58.3732624,69.6078265 60.6225425,69.9140666 62.8592825,70.1701466 C65.0940426,70.4301866 67.3274827,70.5958466 69.4949228,70.6823066 C70.5760028,70.7199266 71.6425629,70.7311466 72.6451029,70.6915466 C73.6285029,70.6545866 74.623783,70.5555866 75.167623,70.3998266 C75.273223,70.3655066 75.385423,70.3285466 75.354403,70.3318466 C75.328003,70.3470266 75.239563,70.3542866 74.887783,70.6413866 C74.808583,70.7100266 74.687803,70.8195866 74.607283,70.9238666 C74.545243,71.0024066 74.574283,70.9601666 74.563063,70.9733666 L74.556463,70.9786466 C74.548543,70.9964666 74.551843,70.9694066 74.557783,70.9687466 C74.571643,70.9271666 74.606623,70.8717266 74.644903,70.7601866 C74.813863,70.3410866 74.992723,69.4995865 75.075223,68.6026465 C75.247483,66.7698264 75.188743,64.6320864 74.976223,62.5009463 C74.770303,60.3572662 74.454163,58.1713461 74.0627829,55.988726 C73.8595029,54.897746 73.6390629,53.806766 73.4027829,52.7204059 C73.1717829,51.6479059 72.9058029,50.5173258 72.6411429,49.5339258 L82.3576632,47.3209457 Z" id="Fill-116" fill="#FFFFFF"></path>
                                <path d="M67.4371087,94.4387435 L77.3186291,101.653204 C77.3186291,101.653204 78.4393091,111.343324 72.8781489,112.292404 C67.3163287,113.241484 66.2398687,101.418244 67.4371087,94.4387435" id="Fill-118" fill="#007CFF"></path>
                                <path d="M67.4371087,94.4387435 L77.3186291,101.653204 C77.3186291,101.653204 78.4393091,111.343324 72.8781489,112.292404 C67.3163287,113.241484 66.2398687,101.418244 67.4371087,94.4387435" id="Fill-120" fill="#FFFFFF"></path>
                                <path d="M46.0154879,94.4387435 L42.3907678,101.653204 C42.3907678,101.653204 41.2384077,111.343324 42.8593678,112.292404 C44.4803279,113.241484 45.7976879,101.418244 46.0154879,94.4387435" id="Fill-122" fill="#007CFF"></path>
                                <path d="M46.0154879,94.4387435 L42.3907678,101.653204 C42.3907678,101.653204 41.2384077,111.343324 42.8593678,112.292404 C44.4803279,113.241484 45.7976879,101.418244 46.0154879,94.4387435" id="Fill-124" fill="#FFFFFF"></path>
                                <path d="M61.8684905,18.1265047 C60.6983105,18.1265047 59.3624704,19.4663047 58.7671504,21.3143048 C58.3553104,22.5920648 58.3863304,23.8909449 58.8483304,24.7034049 C59.0839504,25.1172249 59.4198904,25.3851849 59.8205104,25.4762649 C61.0613105,25.7640249 62.5951505,24.3450249 63.2459106,22.3247648 C63.6577506,21.0456848 63.6267306,19.7474647 63.1647305,18.9350047 C62.9291105,18.5205247 62.5931705,18.2538847 62.1932105,18.1621447 C62.0869505,18.1377247 61.9780505,18.1265047 61.8684905,18.1265047 L61.8684905,18.1265047 Z M60.1373104,25.6808649 C60.0171904,25.6808649 59.8990504,25.6676649 59.7828904,25.6412649 C59.3347504,25.5389649 58.9611904,25.2432849 58.7018104,24.7872249 C58.2101104,23.9219649 58.1738104,22.6046048 58.6067704,21.2628248 C59.2839304,19.1594047 60.9088505,17.6928846 62.2301705,17.9971447 C62.6783105,18.1001047 63.0518705,18.3957847 63.3119106,18.8511847 C63.8036106,19.7164447 63.8392506,21.0344648 63.4069506,22.3762448 C62.7891905,24.2935449 61.3820705,25.6808649 60.1373104,25.6808649 L60.1373104,25.6808649 Z" id="Fill-126" fill="#FFFFFF"></path>
                                <path d="M67.9316467,19.5429307 C66.5859067,19.5429307 65.2606266,20.8424708 64.8448266,22.6706708 C64.6197666,23.6613309 64.6917066,24.6566109 65.0487666,25.4723709 C65.4025266,26.280211 65.9925667,26.814811 66.7099867,26.977831 C68.2009267,27.319711 69.7908668,25.9370109 70.2548468,23.9015709 C70.4799068,22.9109108 70.4066468,21.9156308 70.0495868,21.0992108 C69.6964868,20.2920307 69.1071068,19.7574307 68.3890267,19.5944107 C68.2372267,19.5594307 68.0847667,19.5429307 67.9316467,19.5429307 M67.1647267,27.197611 C67.0003867,27.197611 66.8360467,27.179131 66.6723667,27.142831 C65.9014866,26.967271 65.2698666,26.398351 64.8949866,25.5403509 C64.5234066,24.6915909 64.4468466,23.6586909 64.6804866,22.6337108 C65.1636066,20.5071908 66.8433067,19.0736707 68.4266467,19.4294107 C69.1975268,19.6049707 69.8291468,20.1738907 70.2046868,21.0318908 C70.5762668,21.8806508 70.6521668,22.9128908 70.4191868,23.9385309 C69.9855668,25.8452709 68.5896667,27.197611 67.1647267,27.197611" id="Fill-128" fill="#FFFFFF"></path>
                                <path d="M64.6438566,23.6292549 C64.6035966,23.6292549 64.5639966,23.6153949 64.5323166,23.5870149 C63.8498766,22.9831148 63.1628165,23.1058748 63.1344365,23.1124748 C63.0413765,23.1296348 62.9549165,23.0702348 62.9370965,22.9798148 C62.9186165,22.8880748 62.9773565,22.7996348 63.0684365,22.7811548 C63.1034165,22.7745548 63.9429366,22.6135148 64.7553966,23.3342349 C64.8260166,23.3956149 64.8319566,23.5025349 64.7699166,23.5724949 C64.7369166,23.6101149 64.6900566,23.6292549 64.6438566,23.6292549" id="Fill-130" fill="#FFFFFF"></path>
                                <path d="M66.4930447,66.2636724 L66.1340047,65.4505524 C71.7565449,62.9676323 75.451225,57.9509721 74.878345,55.292492 C74.575405,53.887352 73.0930449,53.590352 71.8898649,53.614112 C66.0878047,53.664932 64.1441046,59.4082522 62.5818845,64.0236323 C62.3805845,64.6182924 62.1878645,65.1885324 61.9951445,65.7178524 L61.1602445,65.4149124 C61.3503245,64.8908724 61.5410645,64.3265724 61.7397245,63.7391723 C63.3052446,59.1145522 65.4489246,52.7811919 71.8819449,52.7257519 C71.9057049,52.7250919 71.9294649,52.7250919 71.9532249,52.7250919 C74.805745,52.7250919 75.554185,54.212732 75.746905,55.105052 C76.403605,58.1529321 72.5855049,63.5728523 66.4930447,66.2636724" id="Fill-132" fill="#6F4871"></path>
                                <path d="M65.1006426,65.3033724 C64.6551426,66.2801724 64.8366426,67.3203325 65.5058826,67.6259125 C66.1757827,67.9308325 67.0806427,67.3869925 67.5261427,66.4108524 C67.9716427,65.4333924 67.7901427,64.3938924 67.1209027,64.0883123 C66.4510027,63.7827323 65.5468026,64.3272324 65.1006426,65.3033724" id="Fill-134" fill="#6F4871"></path>
                                <path d="M60.0796264,65.3033724 C59.6334664,66.2801724 59.8156264,67.3203325 60.4848664,67.6259125 C61.1547665,67.9308325 62.0589665,67.3869925 62.5051265,66.4108524 C62.9506265,65.4333924 62.7691265,64.3938924 62.0998865,64.0883123 C61.4299865,63.7827323 60.5257865,64.3272324 60.0796264,65.3033724" id="Fill-136" fill="#6F4871"></path>
                                <path d="M47.357994,55.217714 C47.241834,56.4532341 48.124914,57.5461941 49.330734,57.6597141 C50.5365541,57.7732341 51.6083941,56.8637541 51.7245541,55.628234 C51.8407141,54.392714 50.9576341,53.2990939 49.7518141,53.1855739 C48.545994,53.0720539 47.474154,53.982194 47.357994,55.217714" id="Fill-138" fill="#6F4871"></path>
                                <path d="M72.3138489,53.627642 C72.2610489,53.627642 72.2075889,53.617742 72.1554489,53.597942 C71.9264289,53.510822 71.8115889,53.2547419 71.8987089,53.0250619 C71.9125689,52.9874419 73.3051689,49.1799018 71.0928488,43.4709016 C71.0044088,43.2425416 71.1179288,42.9851416 71.3469488,42.8960416 C71.5759689,42.8062816 71.8327089,42.9204616 71.9218089,43.1501416 C74.266129,49.2016818 72.7916889,53.1762019 72.7283289,53.342522 C72.6603489,53.519402 72.4920489,53.627642 72.3138489,53.627642" id="Fill-140" fill="#6F4871"></path>
                                <path d="M48.688884,55.195142 C48.658524,55.195142 48.628164,55.191842 48.597804,55.185242 C48.356904,55.135082 48.203124,54.900122 48.253284,54.659222 C48.341064,54.242102 50.4854041,44.4173416 58.7235244,42.4782616 C58.9644244,42.4201816 59.2020244,42.5713216 59.2581244,42.8089216 C59.3142244,43.0485016 59.1663844,43.2874216 58.9274644,43.3435216 C51.2331841,45.1539017 49.143624,54.744362 49.123824,54.841382 C49.079604,55.050602 48.894804,55.195142 48.688884,55.195142" id="Fill-142" fill="#6F4871"></path>
                                <path d="M140.269233,36.3155773 C132.479253,34.5962773 124.575753,34.4319373 116.552793,35.1665173 C113.832272,35.4159973 111.536792,37.4052374 110.957972,40.0841775 C109.346912,47.5329377 106.675892,64.3246584 107.944412,89.8996593 C107.944412,89.9016393 140.428293,90.4256793 140.428293,90.4256793 C140.954973,85.8591391 139.795353,64.7074584 144.656914,43.3577776 C145.388854,40.1429175 143.443833,37.0164974 140.269233,36.3155773" id="Fill-150" fill="#9ABADC"></path>
                                <path d="M120.860679,40.8878595 L121.783359,43.3126996 C121.875759,43.5555796 122.091579,43.7298196 122.348319,43.7687596 L123.587139,43.9575196 C123.809559,43.9918396 124.035939,43.9476196 124.228659,43.8321196 L126.537999,42.4487596 L124.078179,40.2516195 L120.860679,40.8878595 Z" id="Fill-152" fill="#6F4871"></path>
                                <path d="M123.699273,43.2216856 C122.805633,42.9062056 122.257173,43.0322656 122.257173,43.0322656 C120.881733,45.5244257 118.736733,52.8101659 118.169133,56.0586861 C120.345153,62.7134663 121.259913,63.4394663 121.259913,63.4394663 L123.909813,55.806566 C123.909813,55.806566 123.268293,47.7638057 123.699273,43.2216856" id="Fill-154" fill="#6F4871"></path>
                                <path d="M135.011343,20.0952847 C133.829283,24.4631649 132.388503,32.5211052 135.282603,35.7095653 C132.703323,37.9251854 129.357783,40.4582655 124.079763,40.2510255 C118.801083,40.0444455 119.976543,36.4923253 121.501803,34.6845853 C126.529683,33.8721252 126.660363,30.1952651 126.041943,26.686705 L135.011343,20.0952847 Z" id="Fill-156" fill="#ED9BAD"></path>
                                <path d="M136.662795,35.4524953 C136.269435,35.2254553 135.835815,35.0591353 135.544095,34.9607953 C135.350055,34.8921553 135.135555,34.9528753 135.016095,35.1191953 C134.421435,35.9296753 132.494235,39.6085154 124.077915,40.2513555 C125.355675,41.1905355 126.913935,43.8701356 127.575255,45.1426157 C130.184235,44.1044356 137.022495,40.9027755 136.906335,35.8610353 C136.897095,35.6947153 136.811295,35.5356553 136.662795,35.4524953" id="Fill-158" fill="#FFFFFF"></path>
                                <path d="M121.527213,34.8924193 C121.629513,34.5597793 121.368153,34.2337393 121.026273,34.2640993 C120.677133,34.2944593 120.326013,34.3703593 120.158373,34.4079793 C120.089733,34.4231593 120.035613,34.4535193 119.974233,34.4917993 C119.282553,35.0138593 115.327172,39.6503595 118.153953,44.0103196 C118.983573,42.9886396 121.545693,40.7301195 124.078113,40.2516195 C121.857873,38.9652794 120.906153,36.8981593 121.527213,34.8924193" id="Fill-160" fill="#FFFFFF"></path>
                                <path d="M131.354613,22.7849168 L126.046233,26.683537 C126.195393,27.513817 126.297693,28.352677 126.299013,29.1605171 C128.207073,29.0278571 130.948053,27.148177 131.287953,25.1859969 C131.457573,24.2072169 131.483313,23.2561569 131.354613,22.7849168" id="Fill-162" fill="#CE6478"></path>
                                <path d="M124.204965,17.4178626 C121.115505,18.4210627 120.642285,15.9830226 121.273245,13.5892025 C121.666605,12.0995824 121.126065,11.1445624 120.908925,9.50842235 C120.551865,6.82024225 121.225065,4.44754216 126.231165,2.7038221 C132.728865,0.440682016 131.291385,4.25878216 131.550765,5.83618221 C131.810145,7.41424227 129.107445,8.36068231 129.244065,9.98164237 C129.380025,11.6026024 128.734545,15.9480426 124.204965,17.4178626" id="Fill-164" fill="#704371"></path>
                                <path d="M139.139247,14.5387445 C137.377707,20.3553247 136.639827,23.8421049 132.966267,26.233285 C127.441407,29.8289651 120.865167,25.5798849 120.869784,19.3963447 C120.873747,13.8312245 123.753327,5.25386419 130.035867,4.13780415 C136.224687,3.03824411 140.900787,8.72216432 139.139247,14.5387445" id="Fill-166" fill="#ED9BAD"></path>
                                <path d="M137.371503,8.52720031 C134.235843,7.97214029 130.525323,9.30534034 127.400223,8.50608031 C124.918623,7.87182029 124.942383,6.21984023 125.305383,4.55334017 C125.841303,2.09286008 127.886643,1.28832005 129.113583,0.83094003 C130.341183,0.373560014 130.980063,1.90344007 132.672303,0.735900027 C133.814103,-0.0514800019 138.168783,-0.248820009 140.752683,0.735900027 C143.335923,1.72128006 140.381103,3.59568013 141.761823,4.45830016 C146.010244,7.11150026 143.292363,9.57462035 137.371503,8.52720031" id="Fill-168" fill="#704371"></path>
                                <path d="M127.554531,7.85307629 C126.442431,5.32263619 127.611951,1.94871607 132.270891,1.62267606 C128.187471,2.8496161 127.554531,7.85307629 127.554531,7.85307629" id="Fill-170" fill="#FFFFFF"></path>
                                <path d="M136.483869,20.4271987 C133.859049,20.0100787 133.993689,17.0248986 135.282669,14.9617385 C136.504989,13.0035185 134.696589,10.8426784 134.570529,9.34711834 C134.444469,7.85155829 135.831789,6.31903823 138.512709,6.44509824 C141.193629,6.57181824 145.48429,8.2851783 145.55755,10.2526384 C145.63081,12.2200984 142.867389,11.9844784 143.296389,13.8925385 C144.25339,18.1435987 140.331669,21.0383588 136.483869,20.4271987" id="Fill-172" fill="#704371"></path>
                                <path d="M141.992625,10.1218264 C140.878545,12.1084264 138.559305,12.5308265 135.554985,10.1066464 C139.134165,11.6107864 141.992625,10.1218264 141.992625,10.1218264" id="Fill-174" fill="#FFFFFF"></path>
                                <path d="M122.032905,19.2509467 C120.829065,20.5260668 120.928725,23.0875268 120.998685,24.3164469 C121.068645,25.5447069 122.106825,27.561007 125.965845,28.144447 C129.825525,28.7278871 130.731705,27.355087 130.919145,26.063467 C131.106585,24.7725069 130.903305,21.0943268 129.668445,19.8680467 C128.498925,18.7051267 123.397785,17.8062067 122.032905,19.2509467" id="Fill-176" fill="#704371"></path>
                                <path d="M124.546053,21.1110908 C126.359073,21.5915708 127.679073,20.7296108 127.739793,20.6886908 C127.806453,20.6438108 127.825593,20.5547108 127.782033,20.4900307 C127.739133,20.4240307 127.650033,20.4075307 127.582713,20.4517507 C127.567533,20.4623107 126.028413,21.4595708 124.060953,20.6418308 C123.987693,20.6114708 123.902553,20.6464508 123.870213,20.7190508 C123.837873,20.7929708 123.870873,20.8767908 123.943473,20.9064908 C124.149393,20.9922908 124.350693,21.0596108 124.546053,21.1110908" id="Fill-178" fill="#FF8C7B"></path>
                                <path d="M139.675101,21.3805028 C138.545841,22.5777428 136.980321,23.1565628 135.642501,23.1935228 C133.630821,23.2483029 133.159581,21.3349628 134.166741,19.6942027 C135.073581,18.2177827 137.212641,16.4100426 139.016421,17.1367026 C140.793801,17.8528027 140.966721,20.0110027 139.675101,21.3805028" id="Fill-180" fill="#ED9BAD"></path>
                                <path d="M124.733625,150.211979 C125.528265,119.655298 133.289865,90.3103773 133.289865,90.3103773 L107.965004,89.9018373 C107.965004,89.9018373 109.377404,134.034719 109.760864,152.51934 C110.158184,171.73986 116.169464,216.861422 116.169464,216.861422 L126.451605,217.019162 C126.451605,217.019162 125.335545,174.3264 124.733625,150.211979" id="Fill-182" fill="#1A2E35"></path>
                                <path d="M127.204995,107.123086 C119.646675,117.009226 122.261595,135.608027 124.774215,148.749287 C125.322675,132.413627 127.792395,116.555146 129.932775,105.487606 L127.204995,107.123086 Z" id="Fill-184" fill="#000000"></path>
                                <path d="M130.155129,13.9941125 C130.040949,14.4745925 129.695769,14.8085525 129.384909,14.7425525 C129.073389,14.6752325 128.913669,14.2317125 129.027849,13.7525525 C129.142029,13.2720725 129.487209,12.9374525 129.798069,13.0041125 C130.109589,13.0714325 130.269309,13.5142925 130.155129,13.9941125" id="Fill-188" fill="#6F4871"></path>
                                <path d="M124.641423,12.9744785 C124.527243,13.4549585 124.182063,13.7895785 123.871203,13.7229185 C123.559683,13.6555985 123.399963,13.2120785 123.514143,12.7329185 C123.628323,12.2524384 123.973503,11.9178184 124.284363,11.9844784 C124.595883,12.0517984 124.755603,12.4946585 124.641423,12.9744785" id="Fill-190" fill="#6F4871"></path>
                                <path d="M126.149655,13.7311685 C126.149655,13.7311685 124.388775,15.9269886 122.870775,16.8681486 C123.516255,17.7004086 125.034915,17.6410086 125.034915,17.6410086 L126.149655,13.7311685 Z" id="Fill-192" fill="#CE6478"></path>
                                <path d="M132.505983,12.0715324 C132.553503,12.0754924 132.603003,12.0669124 132.649863,12.0451324 C132.795723,11.9778124 132.861723,11.8062124 132.798363,11.6623324 C132.160803,10.2175924 130.854003,10.0176124 130.798563,10.0096924 C130.641483,9.98725237 130.493643,10.0974724 130.467243,10.2552124 C130.441503,10.4116324 130.546443,10.5574924 130.702203,10.5799324 C130.745763,10.5865324 131.762823,10.7541724 132.271023,11.9065324 C132.314583,12.0035524 132.406323,12.0636124 132.505983,12.0715324" id="Fill-194" fill="#6F4871"></path>
                                <path d="M123.090621,10.3474144 C123.181701,10.3645744 123.280701,10.3375144 123.351981,10.2662344 C124.263441,9.35741434 125.277861,9.53891435 125.320761,9.54749435 C125.475201,9.57719435 125.628981,9.47555435 125.663301,9.31913434 C125.697621,9.16403434 125.601261,9.01355433 125.446821,8.98253433 C125.390721,8.97197433 124.093821,8.72447432 122.952021,9.86297436 C122.837841,9.97649436 122.835201,10.1586544 122.945421,10.2701944 C122.986341,10.3111144 123.037161,10.3368544 123.090621,10.3474144" id="Fill-196" fill="#6F4871"></path>
                                <path d="M145.94035,149.446907 C143.420469,122.136766 144.35965,101.067586 140.428689,90.4257453 L118.962849,90.0792453 C118.962849,90.0792453 128.511069,133.257107 132.083649,151.448688 C135.796809,170.363628 142.547949,215.06213 142.547949,215.06213 L152.34037,215.20139 C152.34037,215.20139 151.65397,170.574168 145.94035,149.446907" id="Fill-208" fill="#1A2E35"></path>
                                <path d="M96.3369918,92.8067614 L92.8172116,97.9706016 L99.7934119,100.100422 C99.7934119,100.100422 102.427472,95.0553815 100.027052,93.3090214 L96.3369918,92.8067614 Z" id="Fill-216" fill="#FF8C7B"></path>
                                <path d="M93.8788877,104.23948 L96.4634478,104.5675 C97.4923878,104.69818 98.4896478,104.0593 98.8196479,103.05676 L99.7931479,100.10062 L92.8169476,97.9707996 L92.1226276,101.81002 C91.9087876,102.9934 92.7014476,104.08966 93.8788877,104.23948" id="Fill-218" fill="#ED9BAD"></path>
                                <path d="M119.235033,42.3232275 C117.893913,46.8099077 116.607573,51.3216679 115.357532,55.833428 C114.088352,60.3346282 112.889792,64.8826884 111.744032,69.3522085 C111.518972,70.3131686 111.068852,71.9677886 110.682092,73.0752687 C110.288072,74.2645887 109.892072,75.4070488 109.485512,76.5376288 C108.671732,78.7954889 107.836172,81.014409 106.990052,83.225409 L101.995832,96.4828295 L93.1062916,92.9155294 C94.9437317,88.6426892 96.6663318,84.2860291 98.3374518,79.9485089 C99.1505719,77.7705088 99.9498319,75.5911888 100.708172,73.4290287 C101.085032,72.3486086 101.452652,71.2734686 101.779352,70.2300086 C102.119912,69.1066885 102.271052,68.4922285 102.561452,67.1649685 C103.613492,62.5126283 104.747372,57.9711681 105.803372,53.382188 C106.885772,48.8057478 107.952992,44.2345876 108.981932,39.6423074 L119.235033,42.3232275 Z" id="Fill-220" fill="#007CFF"></path>
                                <path d="M119.235033,42.3232275 C117.893913,46.8099077 116.607573,51.3216679 115.357532,55.833428 C114.088352,60.3346282 112.889792,64.8826884 111.744032,69.3522085 C111.518972,70.3131686 111.068852,71.9677886 110.682092,73.0752687 C110.288072,74.2645887 109.892072,75.4070488 109.485512,76.5376288 C108.671732,78.7954889 107.836172,81.014409 106.990052,83.225409 L101.995832,96.4828295 L93.1062916,92.9155294 C94.9437317,88.6426892 96.6663318,84.2860291 98.3374518,79.9485089 C99.1505719,77.7705088 99.9498319,75.5911888 100.708172,73.4290287 C101.085032,72.3486086 101.452652,71.2734686 101.779352,70.2300086 C102.119912,69.1066885 102.271052,68.4922285 102.561452,67.1649685 C103.613492,62.5126283 104.747372,57.9711681 105.803372,53.382188 C106.885772,48.8057478 107.952992,44.2345876 108.981932,39.6423074 L119.235033,42.3232275 Z" id="Fill-222" fill="#FFFFFF"></path>
                                <path d="M124.333599,103.280434 L87.3260774,100.711054 C86.2106774,100.633834 85.3071374,99.6675936 85.3071374,98.5528536 L85.3071374,73.1461527 C85.3071374,72.0314126 86.2106774,71.1905726 87.3260774,71.2677926 L124.333599,73.8365127 C125.448339,73.9137327 126.351879,74.8806327 126.351879,75.9947128 L126.351879,101.401414 C126.351879,102.516814 125.448339,103.357654 124.333599,103.280434" id="Fill-224" fill="#B5B5BE"></path>
                                <path d="M124.973271,102.903376 L87.9657495,100.333996 C86.8503494,100.256776 85.9468094,99.2905356 85.9468094,98.1757956 L85.9468094,72.7690947 C85.9468094,71.6536946 86.8503494,70.8135146 87.9657495,70.8907346 L124.973271,73.4594547 C126.088011,73.5366747 126.991551,74.5035747 126.991551,75.6176548 L126.991551,101.024356 C126.991551,102.139756 126.088011,102.980596 124.973271,102.903376" id="Fill-226" fill="#D5D5DC"></path>
                                <path d="M136.966791,34.2614593 C133.935411,38.7428594 123.273771,45.5553797 121.045611,56.6585601 C118.041951,46.0602797 120.934071,33.9908592 120.934071,33.9908592 C118.948131,33.8443392 115.22837,34.3584793 112.36859,35.1610393 C110.51795,35.6797993 109.12337,37.2545594 108.78875,39.1408394 C107.81525,44.6260996 105.91247,57.7277601 106.36853,74.3208207 C106.98101,96.6103415 106.18835,131.094683 106.18835,131.094683 C106.18835,131.094683 128.799291,132.420623 146.538772,130.501343 C146.109112,113.470042 141.693711,84.5475211 142.387371,76.9898608 C143.280351,67.2660805 145.415452,48.2923998 146.520292,40.3948395 C146.846992,38.0571194 145.465612,35.8936393 143.243391,35.1999793 C140.190231,34.2475993 136.966791,34.2614593 136.966791,34.2614593" id="Fill-228" fill="#007CFF"></path>
                                <path d="M136.966791,34.2614593 C133.935411,38.7428594 123.273771,45.5553797 121.045611,56.6585601 C118.041951,46.0602797 120.934071,33.9908592 120.934071,33.9908592 C118.948131,33.8443392 115.22837,34.3584793 112.36859,35.1610393 C110.51795,35.6797993 109.12337,37.2545594 108.78875,39.1408394 C107.81525,44.6260996 105.91247,57.7277601 106.36853,74.3208207 C106.98101,96.6103415 106.18835,131.094683 106.18835,131.094683 C106.18835,131.094683 128.799291,132.420623 146.538772,130.501343 C146.109112,113.470042 141.693711,84.5475211 142.387371,76.9898608 C143.280351,67.2641005 145.416112,48.2838198 146.520952,40.3895595 C146.836432,38.1349994 145.585732,35.9662393 143.452611,35.2666393 C140.339391,34.2469393 136.966791,34.2614593 136.966791,34.2614593" id="Fill-230" fill="#FFFFFF"></path>
                                <path d="M138.801591,88.4723432 L135.016491,93.4447834 L141.871251,95.9376035 C141.871251,95.9376035 144.766012,91.0371033 142.460631,89.1673233 L138.801591,88.4723432 Z" id="Fill-232" fill="#ED9BAD"></path>
                                <path d="M135.748695,99.7606536 L138.312135,100.223974 C139.333155,100.408114 140.362095,99.8220337 140.744235,98.8392936 L141.871515,95.9372735 L135.016095,93.4451134 L134.122455,97.2434136 C133.846575,98.4135936 134.580495,99.5501136 135.748695,99.7606536" id="Fill-234" fill="#FF8C7B"></path>
                                <path d="M146.078488,38.1415334 C147.070468,40.3149135 147.990508,42.3767535 148.892068,44.5191136 C149.792968,46.6476137 150.682648,48.7846938 151.510948,50.9719339 C152.333968,53.1631339 153.130588,55.379414 153.838768,57.7191141 C154.190548,58.8899542 154.516588,60.0918142 154.783888,61.3900342 C154.917208,62.0401343 155.036668,62.7126743 155.127088,63.4380143 C155.216188,64.1706143 155.278888,64.9289544 155.251828,65.8866144 C155.235328,66.1664544 155.212888,66.4476144 155.184508,66.7248144 L155.076928,67.3801945 C155.001688,67.8283345 154.909288,68.1471145 154.821508,68.5351945 C154.634728,69.2222545 154.438708,69.8631146 154.239388,70.4729546 C153.836128,71.6893346 153.400528,72.8100147 152.952388,73.9155147 C152.058088,76.1199148 151.097788,78.2226749 150.126268,80.3115749 C149.168608,82.404435 148.180588,84.4662751 147.173428,86.5149152 C146.178148,88.5787352 145.172968,90.5956953 144.141388,92.6786554 L135.688767,88.1734952 C137.833767,84.3553951 139.861947,80.3623949 141.735027,76.4050348 C142.659687,74.4177747 143.536167,72.4159946 144.318268,70.4498546 C144.707668,69.4697545 145.075288,68.4896545 145.370308,67.5696145 L145.576888,66.8964144 L145.737268,66.2720544 C145.763008,66.1110144 145.823068,65.8866144 145.829668,65.7790344 L145.855408,65.6021544 C145.847488,65.5995144 145.844188,65.6001744 145.848148,65.5995144 L145.826368,65.2266144 C145.797988,65.0457744 145.794688,64.8939744 145.756408,64.6880544 C145.695688,64.2993144 145.607908,63.8676743 145.502968,63.4195343 C145.292428,62.5206143 145.005988,61.5576743 144.682588,60.5848342 C144.045028,58.6345341 143.253687,56.6413341 142.393047,54.665294 C141.533067,52.6866139 140.622927,50.7033139 139.657347,48.7424538 C138.686487,46.7980937 137.672727,44.8015936 136.640487,42.9615136 L146.078488,38.1415334 Z" id="Fill-236" fill="#007CFF"></path>
                                <path d="M146.078488,38.1415334 C147.070468,40.3149135 147.990508,42.3767535 148.892068,44.5191136 C149.792968,46.6476137 150.682648,48.7846938 151.510948,50.9719339 C152.333968,53.1631339 153.130588,55.379414 153.838768,57.7191141 C154.190548,58.8899542 154.516588,60.0918142 154.783888,61.3900342 C154.917208,62.0401343 155.036668,62.7126743 155.127088,63.4380143 C155.216188,64.1706143 155.278888,64.9289544 155.251828,65.8866144 C155.235328,66.1664544 155.212888,66.4476144 155.184508,66.7248144 L155.076928,67.3801945 C155.001688,67.8283345 154.909288,68.1471145 154.821508,68.5351945 C154.634728,69.2222545 154.438708,69.8631146 154.239388,70.4729546 C153.836128,71.6893346 153.400528,72.8100147 152.952388,73.9155147 C152.058088,76.1199148 151.097788,78.2226749 150.126268,80.3115749 C149.168608,82.404435 148.180588,84.4662751 147.173428,86.5149152 C146.178148,88.5787352 145.172968,90.5956953 144.141388,92.6786554 L135.688767,88.1734952 C137.833767,84.3553951 139.861947,80.3623949 141.735027,76.4050348 C142.659687,74.4177747 143.536167,72.4159946 144.318268,70.4498546 C144.707668,69.4697545 145.075288,68.4896545 145.370308,67.5696145 L145.576888,66.8964144 L145.737268,66.2720544 C145.763008,66.1110144 145.823068,65.8866144 145.829668,65.7790344 L145.855408,65.6021544 C145.847488,65.5995144 145.844188,65.6001744 145.848148,65.5995144 L145.826368,65.2266144 C145.797988,65.0457744 145.794688,64.8939744 145.756408,64.6880544 C145.695688,64.2993144 145.607908,63.8676743 145.502968,63.4195343 C145.292428,62.5206143 145.005988,61.5576743 144.682588,60.5848342 C144.045028,58.6345341 143.253687,56.6413341 142.393047,54.665294 C141.533067,52.6866139 140.622927,50.7033139 139.657347,48.7424538 C138.686487,46.7980937 137.672727,44.8015936 136.640487,42.9615136 L146.078488,38.1415334 Z" id="Fill-238" fill="#FFFFFF"></path>
                                <path d="M132.126747,89.4829353 L142.865607,97.1554356 C142.865607,97.1554356 144.366448,107.460676 138.482547,108.469816 C132.598647,109.478956 131.076687,96.9059555 132.126747,89.4829353" id="Fill-240" fill="#007CFF"></path>
                                <path d="M132.126747,89.4829353 L142.865607,97.1554356 C142.865607,97.1554356 144.366448,107.460676 138.482547,108.469816 C132.598647,109.478956 131.076687,96.9059555 132.126747,89.4829353" id="Fill-242" fill="#FFFFFF"></path>
                                <path d="M109.345658,89.4829353 L105.721598,97.1554356 C105.721598,97.1554356 104.804858,107.460676 106.558478,108.469816 C108.312758,109.478956 109.337078,96.9059555 109.345658,89.4829353" id="Fill-244" fill="#007CFF"></path>
                                <path d="M109.345658,89.4829353 L105.721598,97.1554356 C105.721598,97.1554356 104.804858,107.460676 106.558478,108.469816 C108.312758,109.478956 109.337078,96.9059555 109.345658,89.4829353" id="Fill-246" fill="#FFFFFF"></path>
                                <path d="M122.069007,129.006245 C120.352347,107.345044 120.591927,61.9693823 120.729867,57.9130221 L121.108047,57.9262221 C120.970107,61.9792823 120.731187,107.328544 122.445867,128.976545 L122.069007,129.006245 Z" id="Fill-248" fill="#6F4871" opacity="0.105515253"></path>
                            </g>
                        </g>
                    </g>
                </g>
            </g>
        </g>
    </g>
</svg>
