<?xml version="1.0" encoding="UTF-8"?>
<svg width="26px" height="26px" viewBox="0 0 26 26" version="1.1" xmlns="http://www.w3.org/2000/svg" xmlns:xlink="http://www.w3.org/1999/xlink">
    <title>unidades-de-saude</title>
    <g id="Page-1" stroke="none" stroke-width="1" fill="none" fill-rule="evenodd">
        <g id="App-Início" transform="translate(-74.000000, -506.000000)" fill="#92929D" stroke="#979797">
            <g id="barra-menu" transform="translate(0.000000, 467.000000)">
                <g id="home" transform="translate(75.000000, 40.000000)">
                    <g id="hospital">
                        <path d="M16.5040283,-1.33226763e-15 C18.0509033,-1.33226763e-15 19.3093872,1.25756836 19.3093872,2.80334475 L19.3093872,2.80334475 L19.3093872,12.4542847 L21.9316406,12.4542847 C23.0720215,12.4542847 24,13.3815307 24,14.5211792 L24,14.5211792 L24,23.296875 C24,23.6852417 23.6850586,24 23.2963257,24 L23.2963257,24 L0.703674328,24 C0.314941406,24 -2.66453526e-15,23.6852417 -2.66453526e-15,23.296875 L-2.66453526e-15,23.296875 L-2.66453526e-15,14.5211792 C-2.66453526e-15,13.420166 0.87890625,12.4542847 1.88067628,12.4542847 L1.88067628,12.4542847 L4.69079587,12.4542847 L4.69079587,2.80334475 C4.69079587,1.25756836 5.9492798,-1.33226763e-15 7.4961548,-1.33226763e-15 L7.4961548,-1.33226763e-15 Z M4.69079587,13.8605347 L1.88067628,13.8605347 C1.74023437,13.8605347 1.40716552,14.1168823 1.40716552,14.5211792 L1.40716552,14.5211792 L1.40716552,22.59375 L4.69079587,22.59375 L4.69079587,13.8605347 Z M16.5040283,1.40625 L7.4961548,1.40625 C6.72528075,1.40625 6.09796144,2.03302003 6.09796144,2.80334475 L6.09796144,2.80334475 L6.09814453,2.80334475 L6.09814453,22.59375 L9.19519041,22.59375 L9.19519041,17.8725586 C9.19519041,17.484375 9.51013181,17.1694336 9.89886473,17.1694336 L9.89886473,17.1694336 L14.1013184,17.1694336 C14.4900513,17.1694336 14.8049927,17.484375 14.8049927,17.8725586 L14.8049927,17.8725586 L14.8049927,22.59375 L17.9020386,22.59375 L17.9020386,2.80334475 C17.9020386,2.03302003 17.2749023,1.40625 16.5040283,1.40625 L16.5040283,1.40625 Z M13.3978271,18.5756836 L10.602356,18.5756836 L10.602356,22.59375 L13.3978271,22.59375 L13.3978271,18.5756836 Z M21.9316406,13.8605347 L19.3093872,13.8605347 L19.3093872,22.59375 L22.5928345,22.59375 L22.5928345,14.5211792 C22.5928345,14.1569824 22.2962036,13.8605347 21.9316406,13.8605347 L21.9316406,13.8605347 Z M15.2949829,14.0588379 C15.6837158,14.0588379 15.9986573,14.3737793 15.9986573,14.7619629 C15.9986573,15.1503296 15.6837158,15.4650879 15.2949829,15.4650879 L15.2949829,15.4650879 L13.6772461,15.4650879 C13.2885132,15.4650879 12.9735718,15.1503296 12.9735718,14.7619629 C12.9735718,14.3737793 13.2885132,14.0588379 13.6772461,14.0588379 L13.6772461,14.0588379 Z M10.322937,14.0588379 C10.7114868,14.0588379 11.0266113,14.3737793 11.0266113,14.7619629 C11.0266113,15.1503296 10.7114868,15.4650879 10.322937,15.4650879 L10.322937,15.4650879 L8.70520022,15.4650879 C8.3164673,15.4650879 8.00152589,15.1503296 8.00152589,14.7619629 C8.00152589,14.3737793 8.3164673,14.0588379 8.70520022,14.0588379 L8.70520022,14.0588379 Z M15.2949829,11.2463379 C15.6837158,11.2463379 15.9986573,11.5612793 15.9986573,11.9494629 C15.9986573,12.3378296 15.6837158,12.6525879 15.2949829,12.6525879 L15.2949829,12.6525879 L13.6772461,12.6525879 C13.2885132,12.6525879 12.9735718,12.3378296 12.9735718,11.9494629 C12.9735718,11.5612793 13.2885132,11.2463379 13.6772461,11.2463379 L13.6772461,11.2463379 Z M10.322937,11.2463379 C10.7114868,11.2463379 11.0264282,11.5612793 11.0264282,11.9494629 C11.0264282,12.3378296 10.7114868,12.6525879 10.322937,12.6525879 L10.322937,12.6525879 L8.70501708,12.6525879 C8.3164673,12.6525879 8.00152589,12.3378296 8.00152589,11.9494629 C8.00152589,11.5612793 8.3164673,11.2463379 8.70501708,11.2463379 L8.70501708,11.2463379 Z M15.2949829,8.43383789 C15.6837158,8.43383789 15.9986573,8.7487793 15.9986573,9.13696289 C15.9986573,9.52532958 15.6837158,9.84008789 15.2949829,9.84008789 L15.2949829,9.84008789 L13.6772461,9.84008789 C13.2885132,9.84008789 12.9735718,9.52532958 12.9735718,9.13696289 C12.9735718,8.7487793 13.2886963,8.43383789 13.6772461,8.43383789 L13.6772461,8.43383789 Z M10.322937,8.43383789 C10.7114868,8.43383789 11.0264282,8.7487793 11.0264282,9.13696289 C11.0264282,9.52532958 10.7114868,9.84008789 10.322937,9.84008789 L10.322937,9.84008789 L8.70501708,9.84008789 C8.3164673,9.84008789 8.00152589,9.52532958 8.00152589,9.13696289 C8.00152589,8.7487793 8.3164673,8.43383789 8.70501708,8.43383789 L8.70501708,8.43383789 Z M12,2.8789673 C12.3885498,2.8789673 12.7036743,3.1939087 12.7036743,3.5820923 L12.7036743,3.5820923 L12.7036743,3.9440918 L13.0658569,3.9440918 C13.4544067,3.9440918 13.7695312,4.2590332 13.7695312,4.6472168 C13.7695312,5.03558348 13.4544067,5.3503418 13.0658569,5.3503418 L13.0658569,5.3503418 L12.7036743,5.3503418 L12.7036743,5.7123413 C12.7036743,6.10070803 12.3885498,6.4154663 12,6.4154663 C11.6114502,6.4154663 11.2965088,6.10070803 11.2965088,5.7123413 L11.2965088,5.7123413 L11.2965088,5.3503418 L10.9343262,5.3503418 C10.5455932,5.3503418 10.2306518,5.03558348 10.2306518,4.6472168 C10.2306518,4.2590332 10.5455932,3.9440918 10.9343262,3.9440918 L10.9343262,3.9440918 L11.2965088,3.9440918 L11.2965088,3.5820923 C11.2965088,3.1939087 11.6114502,2.8789673 12,2.8789673 Z" id="Combined-Shape" stroke-width="0.3"></path>
                    </g>
                </g>
            </g>
        </g>
    </g>
</svg>